<svg width="1920" height="500" viewBox="0 0 1920 500" fill="none" xmlns="http://www.w3.org/2000/svg">
<rect width="1920" height="500" fill="#E5E5E5"/>
<rect y="4.57764e-05" width="1920" height="500" fill="black"/>
<path d="M126.271 294.74L127.226 298.779C128.061 302.79 128.851 307.095 129.598 311.695C130.344 316.295 130.863 320.893 131.153 325.487C131.443 330.081 131.318 334.603 130.778 339.052C130.213 343.394 129.007 347.432 127.16 351.167C125.314 354.902 122.722 358.13 119.385 360.853C116.049 363.575 111.687 365.573 106.302 366.846C100.486 368.222 95.077 368.193 90.0752 366.76C85.1812 365.301 80.809 362.923 76.9586 359.626C73.0827 356.22 69.8589 352.206 67.2872 347.582C64.69 342.851 62.7802 337.901 61.5577 332.731C61.0229 330.469 60.6937 327.874 60.5701 324.947C60.3387 322.044 60.5353 319.268 61.1598 316.619C61.7588 313.861 62.7828 311.458 64.2318 309.41C65.763 307.228 67.9827 305.793 70.8908 305.106C74.0143 304.367 76.5337 304.681 78.4491 306.048C80.4722 307.389 82.1125 309.276 83.37 311.708C84.7097 314.007 85.8438 316.639 86.7723 319.604C87.6754 322.461 88.5941 325.144 89.5284 327.652C90.4373 330.053 91.4724 332.026 92.6339 333.571C93.903 335.091 95.507 335.621 97.4457 335.163C99.7075 334.628 101.255 333.239 102.09 330.994C102.924 328.75 103.304 326.272 103.232 323.559C103.241 320.714 102.981 317.932 102.452 315.214C102.031 312.47 101.642 310.344 101.286 308.837C99.8595 302.805 97.9329 297.062 95.5061 291.608C93.1615 286.021 90.5348 280.444 87.6262 274.877C86.1591 272.039 84.6255 269.161 83.0253 266.241C81.4251 263.321 80.2557 260.3 79.5171 257.176C78.6512 253.514 78.9202 250.323 80.3241 247.603C81.7025 244.775 84.2766 242.915 88.0464 242.024C90.8467 241.362 93.1948 241.432 95.0906 242.235C96.9608 242.93 98.9585 244.163 101.083 245.935C104.35 248.689 107.301 252.028 109.935 255.954C112.677 259.855 115.08 264.007 117.145 268.409C119.209 272.811 121.017 277.331 122.569 281.968C124.095 286.498 125.329 290.755 126.271 294.74ZM210.014 289.61C211.414 295.534 212.21 301.544 212.4 307.64C212.591 313.736 211.833 319.431 210.128 324.725C208.397 329.911 205.494 334.464 201.417 338.385C197.447 342.281 191.962 345.056 184.961 346.712C178.068 348.342 171.987 348.358 166.719 346.76C161.426 345.055 156.844 342.272 152.974 338.41C149.212 334.523 146.063 329.865 143.529 324.437C141.102 318.983 139.188 313.294 137.787 307.37C136.259 300.908 135.498 294.321 135.503 287.61C135.419 285.81 135.451 283.301 135.599 280.081C135.83 276.728 136.302 273.432 137.014 270.193C137.809 266.821 138.867 263.841 140.189 261.254C141.618 258.642 143.464 257.068 145.726 256.533C147.88 256.024 149.743 256.209 151.316 257.088C152.889 257.967 154.268 259.233 155.455 260.886C156.617 262.431 157.547 264.201 158.246 266.196C158.92 268.084 159.448 269.836 159.83 271.451C160.416 273.929 160.774 276.403 160.903 278.875C161.14 281.32 161.324 283.779 161.453 286.251C161.786 289.584 162.119 292.917 162.453 296.25C162.894 299.557 163.496 302.827 164.26 306.058C164.642 307.674 165.129 309.492 165.721 311.513C166.394 313.401 167.271 315.184 168.35 316.862C169.429 318.54 170.714 319.885 172.204 320.898C173.669 321.802 175.479 322 177.633 321.491C180.433 320.828 182.463 319.552 183.722 317.663C185.089 315.747 185.882 313.569 186.101 311.129C186.428 308.664 186.393 306.113 185.998 303.477C185.602 300.841 185.149 298.446 184.64 296.292C183.519 291.553 182.101 286.998 180.385 282.627C178.644 278.148 176.943 273.603 175.284 268.991C175.049 268.478 174.817 267.737 174.588 266.768C174.206 265.152 174.093 263.473 174.25 261.73C174.406 259.987 174.816 258.355 175.48 256.833C176.144 255.311 177.087 254.008 178.309 252.923C179.505 251.73 180.965 250.93 182.688 250.523C185.058 249.962 187.362 250.327 189.6 251.618C191.813 252.8 193.831 254.598 195.652 257.01C197.556 259.29 199.279 262.01 200.823 265.17C202.449 268.198 203.859 271.276 205.054 274.406C206.331 277.402 207.354 280.287 208.124 283.062C209.002 285.812 209.632 287.994 210.014 289.61ZM277.747 327.16C275.916 327.593 274.258 327.075 272.774 325.607C271.315 324.246 270.061 322.552 269.013 320.525C267.966 318.498 267.079 316.433 266.354 314.33C265.712 312.094 265.251 310.383 264.97 309.198C264.206 305.967 263.604 302.698 263.163 299.39C262.83 296.057 262.497 292.724 262.163 289.391C261.938 286.032 261.605 282.699 261.164 279.392C260.831 276.059 260.282 272.776 259.518 269.545C259.212 268.253 258.827 266.865 258.363 265.383C257.899 263.9 257.299 262.564 256.562 261.373C255.908 260.049 255.048 259.059 253.983 258.401C252.917 257.743 251.684 257.579 250.284 257.91C249.315 258.14 248.429 259.202 247.626 261.098C246.798 262.886 246.087 264.931 245.494 267.232C244.983 269.4 244.593 271.596 244.322 273.821C244.135 275.912 244.155 277.443 244.385 278.412C244.945 280.782 245.518 283.205 246.104 285.682C246.772 288.026 247.399 290.437 247.984 292.914L250.2 302.285C250.551 304.249 250.86 306.28 251.129 308.377C251.397 310.474 251.545 312.543 251.573 314.584C251.708 316.599 251.669 318.599 251.456 320.582C251.217 322.459 250.725 324.224 249.979 325.879C249.315 327.401 248.385 328.758 247.188 329.951C245.992 331.143 244.424 331.969 242.486 332.427C240.332 332.937 238.389 332.657 236.658 331.588C234.926 330.519 233.375 329.009 232.004 327.058C230.608 325 229.376 322.676 228.308 320.085C227.323 317.361 226.417 314.732 225.59 312.198C224.846 309.531 224.219 307.12 223.71 304.966C223.283 302.679 222.916 300.889 222.611 299.596L220.815 292.003C219.847 287.91 218.785 283.897 217.627 279.962C216.577 276.003 215.581 272.03 214.638 268.045C214.129 265.891 213.479 263.144 212.69 259.805C212.008 256.441 211.675 253.108 211.69 249.806C211.68 246.397 212.269 243.357 213.458 240.688C214.646 238.019 216.91 236.289 220.249 235.5C221.757 235.143 223.218 235.31 224.632 235.999C226.046 236.688 227.349 237.631 228.542 238.827C229.842 239.998 230.953 241.328 231.873 242.816C232.902 244.279 233.718 245.565 234.321 246.673C235.041 244.91 235.936 243.163 237.005 241.432C238.182 239.675 239.559 238.042 241.135 236.532C242.711 235.022 244.554 233.676 246.663 232.495C248.772 231.314 251.281 230.38 254.189 229.692C259.682 228.393 264.255 228.734 267.907 230.713C271.642 232.56 274.68 235.31 277.023 238.964C279.448 242.485 281.356 246.469 282.749 250.916C284.142 255.364 285.271 259.418 286.137 263.08C286.57 264.911 287.058 267.696 287.601 271.435C288.118 275.065 288.522 279.178 288.812 283.772C289.185 288.233 289.326 292.919 289.236 297.831C289.121 302.635 288.702 307.113 287.977 311.264C287.253 315.416 286.04 318.944 284.339 321.849C282.745 324.728 280.548 326.498 277.747 327.16ZM371.297 276.21C371.756 278.148 372.246 280.705 372.77 283.879C373.4 287.028 373.695 290.2 373.655 293.394C373.588 296.48 373.002 299.292 371.896 301.828C370.789 304.364 368.782 305.976 365.874 306.663C361.889 307.606 358.514 307.039 355.748 304.963C352.983 302.888 351.196 299.899 350.387 295.996C347.653 299.826 344.282 303.126 340.274 305.893C336.373 308.635 332.161 310.541 327.637 311.611C324.513 312.349 321.373 312.296 318.216 311.45C315.059 310.604 312.124 309.251 309.409 307.391C306.695 305.531 304.347 303.299 302.367 300.697C300.362 297.987 299.015 295.178 298.328 292.269C297.105 287.1 297.597 282.207 299.804 277.591C302.118 272.949 305.273 268.734 309.267 264.947C313.237 261.051 317.615 257.684 322.403 254.846C327.299 251.983 331.729 249.798 335.695 248.291C335.568 247.753 335.453 247.268 335.351 246.837C335.357 246.381 335.296 245.884 335.169 245.345C334.379 242.006 332.827 239.53 330.512 237.917C328.197 236.303 325.37 235.891 322.031 236.681C319.339 237.317 317.138 238.35 315.428 239.777C313.693 241.097 312.104 242.554 310.661 244.146C309.192 245.63 307.711 247.061 306.217 248.438C304.697 249.707 302.86 250.596 300.706 251.106C298.337 251.666 296.112 251.396 294.032 250.296C292.06 249.17 290.794 247.422 290.233 245.052C289.393 241.498 289.652 238.025 291.011 234.633C292.478 231.215 294.543 228.168 297.208 225.491C299.956 222.68 303.033 220.304 306.44 218.361C309.93 216.284 313.237 214.877 316.36 214.139C319.268 213.451 322.265 213.14 325.352 213.207C328.413 213.165 331.414 213.593 334.355 214.49C337.271 215.278 340.007 216.508 342.563 218.178C345.201 219.715 347.498 221.731 349.452 224.226C352.333 227.753 354.901 231.638 357.155 235.882C359.384 240.017 361.382 244.378 363.149 248.965C364.89 253.443 366.429 258.027 367.765 262.715C369.076 267.295 370.253 271.794 371.297 276.21ZM344.225 277.152L341.143 266.28C340.927 266.331 340.712 266.382 340.496 266.433C340.256 266.376 340.027 266.374 339.812 266.424C338.412 266.756 336.724 267.553 334.748 268.816C332.854 269.946 331.091 271.387 329.458 273.138C327.799 274.781 326.448 276.522 325.404 278.361C324.468 280.174 324.192 281.889 324.574 283.505C324.93 285.012 325.711 285.908 326.915 286.192C328.119 286.476 329.422 286.452 330.822 286.121C333.191 285.561 335.582 284.37 337.995 282.549C340.382 280.62 342.459 278.821 344.225 277.152ZM386.37 177.625C386.726 179.133 386.614 180.581 386.032 181.97C385.559 183.333 384.79 184.652 383.727 185.927C382.638 187.094 381.403 188.125 380.023 189.02C378.617 189.808 377.268 190.354 375.975 190.66C373.821 191.169 371.809 191.076 369.938 190.381C368.068 189.686 366.866 188.208 366.331 185.946C365.949 184.33 365.995 182.841 366.468 181.478C367.025 179.982 367.806 178.716 368.812 177.682C369.793 176.54 370.987 175.576 372.393 174.789C373.799 174.001 375.202 173.442 376.602 173.111C378.649 172.627 380.648 172.666 382.601 173.228C384.553 173.79 385.81 175.255 386.37 177.625ZM400.651 232.25C401.008 233.758 401.39 235.373 401.797 237.097C402.179 238.712 402.494 240.287 402.743 241.82C403.069 243.677 403.6 246.167 404.339 249.29C405.052 252.306 405.721 255.617 406.346 259.222C406.971 262.827 407.447 266.524 407.775 270.314C408.21 274.078 408.245 277.595 407.882 280.865C407.518 284.136 406.649 286.957 405.277 289.329C403.986 291.567 402.008 293.059 399.34 293.803C397.319 294.395 395.405 293.994 393.597 292.602C391.79 291.21 390.083 289.282 388.477 286.818C386.953 284.222 385.581 281.305 384.361 278.068C383.115 274.723 382.015 271.514 381.061 268.442C380.081 265.262 379.273 262.325 378.637 259.632C378 256.94 377.529 254.947 377.223 253.655C376.816 251.931 376.243 249.508 375.504 246.385C374.74 243.153 374.033 239.681 373.382 235.968C372.732 232.255 372.23 228.45 371.877 224.553C371.632 220.631 371.679 216.98 372.017 213.602C372.464 210.198 373.373 207.311 374.746 204.939C376.118 202.567 378.205 201.05 381.005 200.388C383.913 199.701 386.465 200.633 388.66 203.184C390.856 205.736 392.789 208.861 394.46 212.56C396.131 216.259 397.478 220.035 398.503 223.887C399.502 227.631 400.218 230.419 400.651 232.25ZM470.294 164.604C472.153 172.467 473.676 180.352 474.864 188.26C476.159 196.142 477.736 204.015 479.595 211.877C481.098 218.232 482.749 224.495 484.549 230.665C486.457 236.81 488.163 243.06 489.665 249.415C490.073 251.138 490.516 253.251 490.994 255.754C491.446 258.149 491.617 260.554 491.505 262.969C491.502 265.358 490.991 267.526 489.973 269.472C489.062 271.394 487.368 272.647 484.891 273.233C481.66 273.997 478.687 273.449 475.973 271.589C473.34 269.595 471.398 267.154 470.147 264.266C469.017 268.627 466.832 272.613 463.591 276.222C460.351 279.832 456.468 282.171 451.945 283.241C447.098 284.387 442.502 283.711 438.159 281.212C433.922 278.688 430.059 275.337 426.569 271.158C423.187 266.954 420.292 262.407 417.885 257.517C415.585 252.602 413.99 248.259 413.098 244.49C412.462 241.797 411.897 238.689 411.406 235.166C410.914 231.643 410.624 228.015 410.538 224.283C410.559 220.524 410.821 216.823 411.324 213.179C411.802 209.426 412.692 205.975 413.994 202.824C415.403 199.647 417.264 196.933 419.574 194.68C421.993 192.403 424.979 190.843 428.533 190.003C432.411 189.086 436.394 189.338 440.483 190.76C444.572 192.181 447.927 194.345 450.548 197.251L445.928 171.219C445.551 169.147 445.153 166.739 444.731 163.996C444.285 161.144 444.092 158.404 444.152 155.774C444.32 153.118 444.955 150.75 446.055 148.67C447.155 146.591 449.16 145.207 452.068 144.519C455.191 143.781 457.793 143.962 459.873 145.062C461.953 146.162 463.65 147.808 464.964 150C466.36 152.058 467.431 154.42 468.175 157.088C469.027 159.729 469.734 162.235 470.294 164.604ZM460.921 242.564C460.335 240.087 459.708 237.676 459.04 235.332C458.372 232.988 457.799 230.565 457.321 228.062C456.344 226.815 455.234 225.485 453.99 224.073C452.721 222.554 451.274 221.246 449.651 220.152C448.109 218.924 446.47 218.004 444.733 217.391C442.996 216.778 441.266 216.676 439.543 217.083C437.604 217.541 436.182 218.503 435.277 219.968C434.373 221.433 433.855 223.091 433.724 224.941C433.567 226.684 433.611 228.551 433.854 230.54C434.204 232.505 434.545 234.187 434.876 235.587C435.182 236.879 435.748 238.793 436.575 241.327C437.376 243.753 438.351 246.195 439.501 248.653C440.759 251.085 442.155 253.143 443.691 254.827C445.226 256.511 446.909 257.137 448.74 256.704C450.141 256.373 451.477 255.772 452.75 254.903C453.997 253.925 455.112 252.866 456.093 251.724C457.156 250.449 458.099 249.146 458.921 247.814C459.826 246.349 460.594 245.03 461.227 243.857L460.921 242.564ZM591.565 184.719L592.52 188.758C593.355 192.769 594.146 197.074 594.892 201.674C595.639 206.274 596.157 210.871 596.447 215.466C596.738 220.06 596.613 224.582 596.072 229.031C595.507 233.373 594.301 237.411 592.454 241.146C590.608 244.881 588.016 248.109 584.68 250.831C581.343 253.554 576.982 255.552 571.596 256.825C565.78 258.2 560.371 258.172 555.37 256.738C550.476 255.28 546.103 252.902 542.253 249.604C538.377 246.199 535.153 242.185 532.582 237.561C529.984 232.83 528.075 227.88 526.852 222.71C526.317 220.448 525.988 217.853 525.864 214.925C525.633 212.023 525.83 209.247 526.454 206.597C527.053 203.84 528.077 201.437 529.526 199.388C531.057 197.207 533.277 195.772 536.185 195.084C539.309 194.346 541.828 194.66 543.743 196.027C545.767 197.368 547.407 199.255 548.664 201.687C550.004 203.986 551.138 206.618 552.067 209.583C552.97 212.44 553.888 215.123 554.823 217.631C555.732 220.032 556.767 222.005 557.928 223.55C559.197 225.07 560.801 225.6 562.74 225.142C565.002 224.607 566.55 223.217 567.384 220.973C568.218 218.729 568.599 216.25 568.526 213.538C568.536 210.693 568.276 207.911 567.747 205.193C567.326 202.449 566.937 200.323 566.58 198.815C565.154 192.784 563.227 187.041 560.8 181.587C558.456 176 555.829 170.423 552.921 164.856C551.454 162.018 549.92 159.14 548.32 156.22C546.719 153.3 545.55 150.278 544.811 147.155C543.946 143.493 544.215 140.302 545.618 137.582C546.997 134.754 549.571 132.894 553.341 132.002C556.141 131.34 558.489 131.411 560.385 132.213C562.255 132.908 564.253 134.142 566.378 135.914C569.645 138.667 572.595 142.007 575.229 145.933C577.971 149.834 580.375 153.986 582.439 158.388C584.504 162.79 586.312 167.31 587.863 171.947C589.389 176.476 590.623 180.734 591.565 184.719ZM678.747 203.512C679.205 205.45 679.696 208.007 680.219 211.181C680.85 214.33 681.145 217.502 681.104 220.696C681.038 223.782 680.452 226.593 679.345 229.13C678.239 231.666 676.232 233.278 673.324 233.965C669.339 234.908 665.963 234.341 663.198 232.265C660.433 230.19 658.645 227.201 657.836 223.298C655.103 227.128 651.732 230.427 647.723 233.195C643.823 235.937 639.61 237.843 635.087 238.912C631.963 239.651 628.823 239.597 625.666 238.752C622.509 237.906 619.573 236.553 616.859 234.693C614.144 232.833 611.797 230.601 609.817 227.999C607.811 225.289 606.465 222.48 605.777 219.571C604.555 214.401 605.047 209.509 607.254 204.892C609.568 200.251 612.722 196.036 616.717 192.249C620.686 188.353 625.065 184.986 629.853 182.148C634.749 179.285 639.179 177.1 643.145 175.593C643.017 175.055 642.903 174.57 642.801 174.139C642.807 173.683 642.746 173.186 642.619 172.647C641.829 169.308 640.277 166.832 637.962 165.219C635.647 163.605 632.82 163.193 629.481 163.983C626.789 164.619 624.587 165.652 622.878 167.079C621.143 168.399 619.554 169.856 618.111 171.448C616.642 172.932 615.161 174.363 613.667 175.74C612.147 177.009 610.31 177.898 608.156 178.408C605.786 178.968 603.562 178.698 601.482 177.598C599.51 176.472 598.243 174.724 597.683 172.354C596.843 168.8 597.102 165.327 598.461 161.935C599.927 158.517 601.993 155.47 604.658 152.793C607.405 149.982 610.483 147.606 613.89 145.663C617.38 143.586 620.686 142.179 623.81 141.441C626.718 140.753 629.715 140.442 632.801 140.509C635.862 140.467 638.864 140.895 641.805 141.791C644.721 142.58 647.457 143.81 650.013 145.48C652.651 147.017 654.947 149.033 656.902 151.528C659.783 155.055 662.351 158.94 664.605 163.183C666.834 167.319 668.832 171.68 670.599 176.267C672.34 180.745 673.879 185.329 675.215 190.017C676.525 194.597 677.703 199.096 678.747 203.512ZM651.675 204.454L648.592 193.582C648.377 193.633 648.162 193.684 647.946 193.735C647.705 193.678 647.477 193.676 647.262 193.726C645.861 194.058 644.173 194.855 642.198 196.118C640.304 197.248 638.541 198.689 636.907 200.44C635.249 202.083 633.898 203.824 632.854 205.663C631.918 207.476 631.641 209.191 632.023 210.807C632.38 212.314 633.16 213.21 634.365 213.494C635.569 213.778 636.871 213.754 638.272 213.423C640.641 212.863 643.032 211.672 645.445 209.851C647.832 207.921 649.908 206.123 651.675 204.454ZM749.783 149.696C748.74 157.79 747.504 166.271 746.075 175.138C744.647 184.006 742.821 192.398 740.599 200.316C739.248 205.185 737.463 209.417 735.242 213.012C732.996 216.501 729.988 218.69 726.219 219.582C723.203 220.295 719.884 219.487 716.263 217.159C712.724 214.698 709.22 211.66 705.749 208.045C702.361 204.297 699.242 200.485 696.392 196.61C693.625 192.601 691.504 189.406 690.031 187.025C688.482 184.321 686.774 181.427 684.908 178.342C683.041 175.258 681.269 172.095 679.593 168.852C677.916 165.609 676.414 162.382 675.086 159.17C673.732 155.851 672.699 152.683 671.986 149.667C670.993 145.467 670.932 141.842 671.803 138.793C672.674 135.743 675.318 133.697 679.734 132.652C681.457 132.245 683.146 132.414 684.801 133.16C686.43 133.799 688.054 134.893 689.672 136.444C691.289 137.995 692.93 139.882 694.592 142.104C696.23 144.219 697.877 146.616 699.534 149.295C701.166 151.866 702.769 154.558 704.343 157.37C705.918 160.182 707.467 162.886 708.991 165.483C710.515 168.079 712.026 170.622 713.525 173.111C715.105 175.467 716.955 177.759 719.074 179.987C719.37 177.87 719.709 175.459 720.093 172.752C720.476 170.046 720.876 167.165 721.291 164.11C721.813 161.029 722.377 157.882 722.982 154.668C723.561 151.347 724.274 148.108 725.119 144.951C726.652 138.447 728.55 132.767 730.814 127.91C733.185 123.027 735.986 120.204 739.217 119.44C742.233 118.727 744.604 119.133 746.329 120.659C748.055 122.184 749.261 124.401 749.949 127.309C750.636 130.217 750.929 133.617 750.825 137.508C750.722 141.399 750.374 145.462 749.783 149.696ZM835.178 160.211C836.044 163.873 835.712 167.761 834.183 171.876C832.736 175.857 830.567 179.668 827.675 183.309C824.865 186.817 821.671 189.903 818.093 192.569C814.49 195.127 811.019 196.801 807.68 197.59C801.972 198.94 796.525 198.749 791.339 197.019C786.235 195.155 781.653 192.371 777.593 188.668C773.533 184.966 770.072 180.666 767.208 175.771C764.427 170.742 762.438 165.696 761.241 160.634C759.967 155.249 759.359 149.308 759.415 142.812C759.471 136.317 760.396 130.127 762.189 124.244C764.09 118.336 766.949 113.11 770.765 108.569C774.69 104.001 779.883 100.954 786.345 99.4257C790.007 98.5598 793.661 98.3784 797.305 98.8813C800.924 99.2766 804.24 100.312 807.252 101.988C810.264 103.664 812.893 105.886 815.14 108.653C817.386 111.42 818.968 114.742 819.885 118.62C821.082 123.682 821.125 128.676 820.015 133.601C818.905 138.526 816.955 143.025 814.165 147.096C811.375 151.168 807.906 154.775 803.758 157.916C799.585 160.95 795.101 163.148 790.305 164.509C791.474 167.531 793.248 169.5 795.625 170.416C798.11 171.307 800.807 171.409 803.715 170.721C805.869 170.212 807.842 169.176 809.634 167.615C811.426 166.054 813.138 164.399 814.771 162.648C816.379 160.789 817.971 159.105 819.547 157.595C821.231 156.059 823.043 155.062 824.981 154.604C827.136 154.094 829.24 154.336 831.294 155.329C833.349 156.322 834.643 157.949 835.178 160.211ZM799.646 126.817C799.315 125.417 798.594 124.052 797.483 122.722C796.373 121.393 795.01 120.919 793.394 121.301C791.025 121.861 789.185 122.979 787.875 124.653C786.54 126.22 785.562 128.1 784.944 130.293C784.3 132.379 783.909 134.575 783.772 136.882C783.743 139.164 783.891 141.233 784.216 143.089C785.648 142.41 787.323 141.559 789.242 140.536C791.269 139.488 793.096 138.317 794.723 137.022C796.433 135.595 797.768 134.028 798.73 132.322C799.799 130.591 800.104 128.756 799.646 126.817ZM892.936 64.6685C894.795 72.5311 896.319 80.4163 897.506 88.324C898.801 96.2063 900.378 104.079 902.238 111.941C903.74 118.296 905.392 124.559 907.192 130.729C909.1 136.874 910.805 143.124 912.308 149.479C912.715 151.202 913.158 153.315 913.636 155.818C914.089 158.213 914.259 160.618 914.148 163.033C914.144 165.422 913.633 167.59 912.615 169.536C911.704 171.458 910.011 172.711 907.533 173.297C904.302 174.061 901.329 173.513 898.615 171.653C895.983 169.659 894.041 167.218 892.789 164.33C891.66 168.691 889.474 172.677 886.234 176.286C882.993 179.896 879.111 182.235 874.587 183.305C869.74 184.451 865.145 183.775 860.801 181.276C856.565 178.752 852.702 175.401 849.212 171.222C845.829 167.018 842.934 162.471 840.527 157.581C838.228 152.666 836.632 148.323 835.741 144.554C835.104 141.861 834.54 138.753 834.048 135.23C833.556 131.707 833.267 128.079 833.18 124.347C833.202 120.589 833.464 116.887 833.967 113.243C834.444 109.49 835.334 106.039 836.636 102.888C838.046 99.7111 839.906 96.9967 842.217 94.7444C844.635 92.4666 847.621 90.9075 851.176 90.067C855.053 89.1502 859.036 89.4025 863.126 90.8239C867.215 92.2453 870.57 94.409 873.19 97.315L868.57 71.283C868.194 69.2111 867.795 66.8034 867.374 64.0597C866.927 61.2084 866.734 58.4677 866.794 55.8377C866.963 53.1821 867.597 50.8144 868.697 48.7346C869.798 46.6547 871.802 45.271 874.71 44.5833C877.834 43.8448 880.435 44.0257 882.515 45.1261C884.595 46.2265 886.292 47.8723 887.606 50.0636C889.003 52.1217 890.073 54.4844 890.818 57.1516C891.67 59.7933 892.376 62.299 892.936 64.6685ZM883.563 142.628C882.978 140.151 882.351 137.74 881.683 135.396C881.015 133.052 880.442 130.629 879.964 128.126C878.986 126.879 877.876 125.549 876.632 124.137C875.363 122.618 873.917 121.311 872.293 120.216C870.752 118.988 869.113 118.068 867.376 117.455C865.638 116.842 863.908 116.74 862.185 117.147C860.246 117.606 858.824 118.567 857.92 120.032C857.015 121.497 856.497 123.155 856.366 125.006C856.21 126.748 856.253 128.615 856.496 130.604C856.847 132.569 857.188 134.251 857.519 135.651C857.824 136.943 858.39 138.857 859.217 141.391C860.018 143.817 860.994 146.259 862.144 148.717C863.401 151.149 864.798 153.207 866.333 154.891C867.868 156.575 869.552 157.201 871.383 156.768C872.783 156.437 874.119 155.836 875.392 154.967C876.64 153.989 877.754 152.93 878.735 151.788C879.798 150.513 880.741 149.21 881.563 147.878C882.468 146.413 883.237 145.094 883.869 143.921L883.563 142.628Z" fill="#3BA472"/>
<path d="M287.875 414.818L287.926 414.538C287.842 413.944 287.291 413.689 286.273 413.772C284.916 413.177 283.394 412.059 281.707 410.42C280.012 408.721 278.914 407.392 278.415 406.432C278.169 405.982 278.034 405.668 278.009 405.49C277.967 405.193 278.056 404.968 278.277 404.816C278.489 404.604 278.765 404.413 279.105 404.244C279.436 404.015 279.686 403.859 279.856 403.774C280.824 402.909 281.576 402.439 282.111 402.364C282.705 402.279 283.264 402.594 283.79 403.307C284.832 404.675 286.345 405.733 288.33 406.482C290.306 407.171 292.423 407.356 294.681 407.036C296.7 406.75 298.462 406.137 299.965 405.196C301.408 404.265 302.033 403.116 301.84 401.749C301.696 400.739 301.078 399.585 299.985 398.285C299.816 397.946 299.562 397.648 299.222 397.393C298.883 397.138 298.485 396.892 298.027 396.654C296.975 396.076 295.805 395.302 294.517 394.333C293.516 394.112 292.468 393.775 291.374 393.324L289.376 392.699C287.79 392.196 285.967 391.303 283.906 390.02C281.837 388.677 280.35 387.372 279.443 386.107C277.959 385.045 277.037 383.236 276.675 380.682C276.279 377.89 276.562 375.183 277.524 372.562C278.009 370.857 279.383 368.148 281.644 364.434C283.905 360.72 285.63 358.354 286.819 357.337L288.82 354.781C288.846 354.535 288.918 354.404 289.037 354.387C289.148 354.311 289.233 354.268 289.292 354.26C289.453 354.116 290.039 353.76 291.05 353.193C292.052 352.566 293.067 351.604 294.095 350.307C297.466 348.011 300.497 346.309 303.188 345.201C305.93 344.024 308.252 343.301 310.153 343.032C312.487 342.822 314.743 343.351 316.922 344.618C319.161 345.876 320.572 347.494 321.155 349.472C321.358 350.049 321.485 350.516 321.536 350.872C321.847 353.07 321.305 355.662 319.91 358.647C318.516 361.632 316.888 363.833 315.028 365.248C314.196 365.79 313.364 366.12 312.533 366.238C311.523 366.381 310.653 366.231 309.924 365.789C309.254 365.339 308.89 364.693 308.831 363.853C308.756 363.319 308.85 362.699 309.113 361.995C309.428 361.224 310.159 359.969 311.307 358.23C312.906 354.974 313.613 352.692 313.427 351.385C313.301 350.494 312.691 350.035 311.596 350.008C310.917 349.923 309.173 350.443 306.363 351.568C303.604 352.626 302.246 353.303 302.288 353.6C302.296 353.659 302.283 353.782 302.249 353.969C302.266 354.088 302.181 354.13 301.995 354.096C301.749 354.07 300.194 355.29 297.332 357.756C294.529 360.214 293.089 361.6 293.013 361.914C292.995 362.219 292.804 362.58 292.439 362.995C292.124 363.342 291.717 363.673 291.216 363.986C290.239 364.791 289.385 365.821 288.654 367.076C287.982 368.323 287.136 370.261 286.115 372.89C285.545 374.001 285.107 375.184 284.8 376.44C284.552 377.687 284.496 378.786 284.631 379.736C284.723 380.39 284.892 380.941 285.138 381.391C285.502 382.249 286.243 382.992 287.363 383.621C288.533 384.183 290.73 385.144 293.953 386.505C297.226 387.799 300.22 389.253 302.934 390.868C305.639 392.424 307.339 393.728 308.033 394.781C309.177 396.013 309.905 397.728 310.217 399.926C310.461 401.649 310.455 403.316 310.198 404.928C309.824 406.132 309.288 407.269 308.591 408.337C307.902 409.465 307.227 410.045 306.565 410.079C305.996 410.341 305.521 410.621 305.139 410.917C304.765 411.273 304.438 411.531 304.158 411.692C303.504 412.209 301.721 412.886 298.81 413.723C295.966 414.611 293.56 415.164 291.591 415.382L287.875 414.818ZM325.199 404.075C324.486 404.176 323.904 404.137 323.455 403.958C323.005 403.779 322.348 403.418 321.483 402.874C320.118 401.795 319.017 400.648 318.178 399.434C317.331 398.16 316.925 397.006 316.96 395.97C317.079 395.529 317.08 395.105 316.961 394.698C316.902 394.282 316.865 394.015 316.848 393.896C316.576 393.692 316.437 393.56 316.428 393.501C316.411 393.382 316.458 393.284 316.568 393.208C316.67 393.072 316.743 392.941 316.785 392.814C317.142 392.763 317.214 392.42 317.003 391.783C316.817 391.325 316.877 390.256 317.185 388.576C317.492 386.896 317.965 385.314 318.603 383.83C319.105 382.668 319.866 381.197 320.886 379.416C321.966 377.627 322.951 376.245 323.843 375.27C326.452 372.294 328.906 370.371 331.207 369.5C332.353 369.034 333.49 368.721 334.619 368.562C336.342 368.317 337.746 368.603 338.831 369.419C340.213 369.768 341.273 370.406 342.011 371.332C342.748 372.257 343.323 373.539 343.737 375.178C343.847 375.526 343.961 376.115 344.079 376.947C344.702 381.343 343.687 386.153 341.034 391.377C339.945 393.531 338.802 395.299 337.604 396.681C336.406 398.063 334.911 399.486 333.119 400.952C332.151 401.817 331.089 402.452 329.935 402.858C328.78 403.264 327.202 403.67 325.199 404.075ZM332.747 391.915C333.733 390.745 334.392 389.622 334.724 388.545C335.107 387.399 335.588 385.453 336.168 382.704C336.449 382.119 336.476 381.024 336.249 379.42C336.046 377.995 335.725 377.222 335.284 377.103C334.953 376.907 334.58 376.839 334.164 376.898C333.629 376.974 332.827 377.512 331.757 378.512C329.93 380.588 328.443 382.708 327.295 384.871C326.198 386.965 325.559 389.298 325.378 391.869C325.352 392.115 325.373 392.475 325.44 392.951C325.726 394.971 326.582 395.879 328.008 395.677C329.374 395.484 330.954 394.23 332.747 391.915ZM356.07 411.335C355.747 411.623 355.145 411.648 354.263 411.409C353.44 411.162 352.575 410.618 351.668 409.777C351.397 409.573 350.994 409.297 350.46 408.948C349.934 408.659 349.48 408.239 349.099 407.687C348.786 407.186 348.625 406.481 348.618 405.573C348.789 404.64 348.727 403.134 348.432 401.055C348.365 400.58 348.362 399.065 348.424 396.511C348.478 393.897 348.544 392.01 348.622 390.847L348.738 389.74C348.935 387.712 349.035 385.85 349.036 384.153C349.301 382.6 349.481 381.09 349.576 379.622C349.722 378.087 349.757 377.051 349.681 376.517C349.53 375.447 349.836 374.616 350.601 374.023C350.593 373.539 350.899 372.496 351.521 370.893L352.634 365.281C353.343 361.302 354.008 358.512 354.629 356.909C354.859 355.967 355.225 354.915 355.727 353.753C356.221 352.532 356.688 351.557 357.131 350.827C357.403 349.759 358.321 348.113 359.885 345.892C361.449 343.671 362.86 341.865 364.117 340.475C366.868 338.509 369.254 337.383 371.274 337.097C373.115 336.836 375.147 337.487 377.368 339.051C378.326 339.824 378.886 340.351 379.047 340.631C379.208 340.912 379.347 341.467 379.465 342.299C379.387 343.462 378.642 345.688 377.23 348.979C375.809 352.21 374.866 353.889 374.399 354.016C374.229 354.101 373.996 354.164 373.699 354.206C372.807 354.332 372.257 353.653 372.046 352.168C371.996 351.811 371.737 351.484 371.271 351.187C370.864 350.881 370.593 350.677 370.457 350.575C370.466 350.21 370.509 349.659 370.586 348.92C370.655 348.123 370.783 347.529 370.97 347.139C371.098 346.757 371.14 346.418 371.098 346.121C371.056 345.824 370.912 345.662 370.666 345.637C370.471 345.543 370.174 345.585 369.775 345.763C369.172 346.212 368.233 347.072 366.959 348.344C365.744 349.607 365.162 350.416 365.213 350.773C365.17 350.9 365.038 351.252 364.817 351.829C364.647 352.338 364.341 352.957 363.899 353.686C363.04 355.323 362.636 356.319 362.686 356.676C362.796 357.448 362.672 357.859 362.316 357.91C362.273 358.037 362.175 358.415 362.022 359.042C361.919 359.602 361.736 360.234 361.472 360.938C361.31 361.507 361.097 362.143 360.834 362.847C360.57 363.551 360.336 364.038 360.132 364.31L360.221 364.297L359.655 369.286C360.419 369.117 361.434 368.791 362.699 368.309C363.963 367.827 365.266 367.4 366.607 367.028C369.298 366.344 371.535 365.663 373.317 364.986C375.1 364.309 376.883 363.42 378.666 362.319C379.11 360.317 379.693 358.235 380.417 356.072C381.14 353.909 381.677 352.56 382.025 352.026C383.341 351.052 384.445 350.502 385.336 350.375C386.168 350.257 386.842 350.525 387.359 351.179C387.503 351.341 387.74 351.519 388.071 351.715C388.402 351.91 388.673 352.114 388.885 352.327C389.097 352.539 389.232 352.853 389.291 353.269C389.434 354.279 388.914 356.383 387.731 359.58L386.889 361.972C387.075 362.006 387.495 361.977 388.149 361.884C388.802 361.792 389.333 361.686 389.74 361.568C391.013 361.145 391.888 360.9 392.363 360.833C392.779 360.774 393.11 360.757 393.356 360.783C394.663 360.598 395.706 360.904 396.486 361.703C397.266 362.501 397.807 363.546 398.112 364.836C398.323 365.472 398.038 366.028 397.257 366.502C396.476 366.976 395.283 367.327 393.679 367.555C393.382 367.597 391.787 367.883 388.893 368.415C386.058 368.938 384.628 369.322 384.602 369.568C384.33 369.788 384.023 371.68 383.679 375.244L383.409 377.827C383.263 379.787 383.167 381.679 383.123 383.504C383.078 385.328 383.136 386.804 383.296 387.933C383.523 389.537 383.942 390.568 384.552 391.027C385.095 391.435 385.901 391.563 386.97 391.412C388.515 391.193 389.759 390.562 390.702 389.52C391.696 388.409 392.668 387.787 393.619 387.652C394.213 387.568 394.717 387.708 395.133 388.074C395.548 388.439 395.802 388.948 395.895 389.602C396.038 390.612 395.842 391.579 395.306 392.503C394.557 394.064 393.309 395.513 391.559 396.852C389.869 398.182 388.252 398.957 386.707 399.176C386.351 399.226 385.926 399.226 385.434 399.174C384.077 399.003 382.961 398.828 382.087 398.649C381.273 398.461 380.429 398.066 379.556 397.462C378.293 396.247 377.37 394.863 376.786 393.31C376.262 391.748 375.797 389.541 375.393 386.69C375.191 385.264 375.45 381.319 376.17 374.854L376.428 372.181C376.131 371.799 375.597 371.662 374.824 371.772C373.993 371.89 371.251 372.642 366.6 374.028C366.082 374.223 364.477 374.874 361.786 375.983C359.146 377.024 357.847 377.693 357.889 377.99C357.652 378.023 357.477 378.29 357.367 378.791C357.247 379.232 357.204 379.571 357.238 379.809C357.356 380.641 357.326 381.281 357.147 381.731C356.976 382.664 356.745 384.454 356.454 387.101C356.222 389.74 356.156 391.416 356.257 392.129C355.866 392.79 355.78 393.893 355.999 395.437C355.735 396.141 355.662 396.909 355.78 397.741C355.83 398.097 355.843 398.399 355.817 398.645C355.859 398.942 355.901 399.663 355.942 400.809C355.983 401.954 356.071 403.002 356.206 403.953L356.305 406.575C356.287 406.88 356.303 407.635 356.353 408.84C356.47 410.096 356.376 410.928 356.07 411.335ZM409.236 390.075C408.345 390.201 407.361 389.674 406.285 388.493C405.2 387.253 404.251 385.691 403.439 383.806C402.677 381.853 402.226 379.948 402.083 378.09C401.78 375.951 401.676 374.148 401.771 372.68C401.866 371.212 401.918 370.296 401.927 369.931C402.004 369.617 402.051 369.095 402.069 368.365C402.078 367.576 402.164 366.473 402.327 365.056C402.499 363.275 402.793 361.93 403.21 361.023C403.873 359.717 404.888 358.967 406.254 358.773C406.967 358.672 407.62 358.792 408.214 359.132C408.859 359.404 409.261 359.892 409.421 360.597C409.828 360.903 410.129 361.739 410.322 363.105C410.465 364.115 410.515 365.108 410.472 366.084C410.428 367.059 410.287 367.776 410.049 368.234C409.922 368.616 409.898 370.377 409.98 373.516C410.062 375.807 410.09 377.288 410.064 377.958C410.038 378.204 410.055 378.535 410.114 378.951C410.223 379.724 410.486 380.08 410.902 380.021C411.793 379.895 413.178 377.911 415.058 374.069C416.325 371.466 417.124 369.625 417.457 368.548C417.84 367.403 418.266 365.706 418.735 363.458C419.068 361.533 419.434 360.269 419.834 359.667C420.31 358.751 421.083 358.217 422.152 358.065C423.162 357.922 424.159 358.114 425.143 358.642C426.16 359.406 426.77 360.502 426.972 361.927C427.123 362.997 426.986 364.168 426.561 365.44C426.058 367.026 425.661 368.931 425.37 371.153C425.079 373.376 425.031 375.171 425.224 376.537C425.376 377.606 425.592 378.273 425.871 378.536C426.202 378.732 426.664 378.787 427.258 378.703C427.912 378.611 428.502 378.285 429.029 377.725C429.615 377.157 430.494 376.093 431.667 374.533C432.534 373.38 433.66 371.281 435.047 368.237C436.433 365.192 437.089 363.402 437.013 362.868C436.963 362.511 437.158 361.969 437.6 361.239C437.838 360.781 438.055 360.387 438.251 360.056C438.506 359.717 438.88 359.361 439.372 358.988C439.712 358.819 440 358.718 440.238 358.684C441.07 358.566 441.858 358.788 442.605 359.348C442.876 359.552 443.164 360.087 443.468 360.953C443.773 361.819 443.98 362.638 444.089 363.41C443.498 368.221 442.901 371.063 442.298 371.936C441.295 372.987 440.501 374.221 439.913 375.637C438.732 377.562 437.776 378.94 437.045 379.771C436.365 380.533 435.924 381.051 435.72 381.322C434.598 382.814 433.23 384.068 431.617 385.085C430.004 386.101 428.454 386.715 426.969 386.925C425.781 387.093 424.793 386.961 424.004 386.527C422.028 385.838 420.88 384.364 420.56 382.107C420.501 381.691 420.387 381.313 420.217 380.974C420.048 380.634 419.925 380.409 419.849 380.299C418.958 380.425 418.312 381.001 417.912 382.027C417.283 383.571 415.949 385.275 413.91 387.14C411.923 388.936 410.364 389.915 409.236 390.075ZM457.165 384.737C456.588 384.94 456.062 385.075 455.586 385.142C454.814 385.251 454.093 385.293 453.422 385.267C452.744 385.181 452.388 385.02 452.354 384.782C452.329 384.604 452.282 384.489 452.214 384.438C452.146 384.387 452.023 384.374 451.845 384.4C451.642 384.247 451.184 384.009 450.471 383.685C449.81 383.294 449.259 383.039 448.818 382.92C447.962 382.011 447.449 380.962 447.281 379.774C447.121 378.646 447.221 376.783 447.58 374.187C447.311 371.862 447.777 369.16 448.976 366.081C450.227 362.934 451.839 359.979 453.81 357.215C455.773 354.392 457.6 352.315 459.29 350.984C460.055 349.967 461.239 349.345 462.843 349.117C464.091 348.941 465.228 349.052 466.254 349.452C467.094 349.818 468.187 350.693 469.535 352.078C470.942 353.454 472.031 354.724 472.802 355.887C472.98 356.286 473.208 356.829 473.487 357.517C473.826 358.196 474.067 359.041 474.21 360.051L474.385 362.571C474.018 365.108 473.973 367.356 474.25 369.317C474.25 370.165 474.406 370.84 474.719 371.341C475.024 371.782 475.385 371.974 475.8 371.915C476.097 371.873 476.412 371.737 476.743 371.509C477.074 371.28 477.477 371.132 477.952 371.064C478.725 370.955 479.412 371.1 480.014 371.5C480.616 371.899 480.967 372.455 481.068 373.168C481.153 373.762 481.084 374.348 480.863 374.924C480.496 376.188 479.638 377.401 478.288 378.562C476.997 379.714 475.727 380.379 474.48 380.556C473.47 380.699 472.414 380.303 471.312 379.368C470.269 378.425 469.358 377.13 468.58 375.483L467.755 373.51L464.963 376.905L463.204 379.245C462.388 380.33 461.934 380.97 461.84 381.165C461.611 381.683 461.139 382.204 460.426 382.729C459.772 383.246 458.685 383.915 457.165 384.737ZM458.359 375.841C459.344 375.095 460.13 374.227 460.716 373.234C461.362 372.234 462.136 370.852 463.037 369.088C463.225 368.698 463.412 368.307 463.599 367.917C463.777 367.468 464.016 367.01 464.313 366.544C465.129 365.034 465.686 363.834 465.984 362.943C466.342 362.044 466.572 361.103 466.675 360.119C466.328 359.38 465.87 358.718 465.303 358.132C464.786 357.478 464.345 357.146 463.98 357.137C462.317 357.373 460.337 359.653 458.041 363.978C457.803 364.436 457.433 365.246 456.931 366.408C456.488 367.562 456.203 368.329 456.076 368.711C455.838 369.169 455.565 370.238 455.257 371.917C455.001 373.529 454.907 374.573 454.974 375.048C455.159 376.355 455.638 376.954 456.41 376.844C457.004 376.76 457.654 376.426 458.359 375.841ZM492.556 379.085C492.081 379.152 491.381 379.13 490.456 379.019C489.591 378.899 489.056 378.763 488.853 378.61C488.454 378.363 488.035 377.968 487.594 377.425C487.145 376.822 486.862 376.104 486.744 375.273C486.559 373.966 486.84 372.532 487.589 370.971C487.844 370.208 488.386 367.616 489.214 363.197L490.301 358.043C490.277 357.016 490.117 356.312 489.82 355.93C489.515 355.488 488.972 355.292 488.192 355.342C487.538 355.435 487.033 355.294 486.677 354.921C486.313 354.487 486.059 353.766 485.916 352.756C485.85 351.008 486.357 349.664 487.435 348.723C488.319 348.113 489.592 347.69 491.255 347.454C492.74 347.244 493.75 347.313 494.284 347.661C494.81 347.95 495.339 348.694 495.873 349.891C496.406 351.088 496.837 352.208 497.167 353.252C497.439 353.032 498.098 352.12 499.143 350.518L500.813 348.191C501.722 347.335 502.783 346.487 503.998 345.648C505.212 344.81 506.087 344.353 506.621 344.277C507.215 344.193 508.03 344.38 509.064 344.84C510.099 345.299 510.803 345.775 511.176 346.267C512.303 347.805 512.942 349.108 513.093 350.177C513.211 351.009 513.096 351.692 512.747 352.226C511.43 354.473 509.79 355.735 507.83 356.013C507.355 356.081 506.964 356.106 506.659 356.088C506.354 356.071 505.938 355.706 505.413 354.992C504.888 354.279 504.566 353.719 504.447 353.311C504.422 353.133 504.027 353.553 503.262 354.57C502.549 355.52 502.09 356.13 501.886 356.401L500.598 358.22C499.808 359.483 499.038 361.107 498.289 363.092C497.599 365.068 496.569 368.063 495.199 372.075L494.432 375.001C494.031 376.452 493.725 377.495 493.512 378.131C493.291 378.708 492.972 379.026 492.556 379.085ZM523.927 375.73C521.858 375.235 520.234 374.253 519.056 372.784C517.929 371.247 517.181 369.171 516.81 366.558C516.726 365.964 516.634 364.886 516.534 363.324C516.526 362.841 516.475 362.272 516.383 361.619C516.24 360.609 516.016 359.883 515.711 359.441C515.397 358.94 514.906 358.465 514.236 358.014C514.032 357.861 513.562 357.534 512.824 357.033C512.086 356.531 511.726 356.128 511.744 355.822L511.706 355.555C511.647 355.139 511.673 354.681 511.784 354.18C511.946 353.612 512.107 353.256 512.269 353.112C512.438 353.027 512.769 352.798 513.262 352.426C513.755 352.053 514.158 351.905 514.472 351.982C514.709 351.948 515.087 352.046 515.604 352.276C516.181 352.497 516.486 352.726 516.52 352.964C516.977 353.626 517.734 352.337 518.79 349.097C519.445 347.732 520.401 346.354 521.658 344.964C522.907 343.514 524.079 342.378 525.175 341.557C525.565 341.319 526.453 340.951 527.836 340.452C529.271 339.885 530.404 339.543 531.236 339.425C532.186 339.29 533.34 339.521 534.697 340.116C536.113 340.703 537.3 341.383 538.258 342.157C539.632 342.871 540.496 344.476 540.85 346.971C541.06 348.456 541.003 349.767 540.68 350.903C540.568 351.828 539.574 353.363 537.696 355.508C535.87 357.585 534.341 358.983 533.109 359.703C531.845 360.185 530.41 360.54 528.806 360.767C527.202 360.994 526.082 361.002 525.446 360.789C524.997 360.61 524.657 360.779 524.427 361.297C524.249 361.746 524.18 362.756 524.22 364.326L524.257 365.229C524.35 365.883 524.587 366.486 524.968 367.038C525.485 367.692 525.943 368.142 526.341 368.388C526.74 368.635 527.295 368.708 528.008 368.607L528.798 368.404C529.443 368.252 530.08 367.828 530.708 367.133C531.396 366.43 532.174 365.501 533.041 364.348C533.967 363.187 534.506 362.504 534.659 362.301C534.872 361.665 535.632 361.254 536.939 361.069C537.474 360.993 538.17 360.985 539.026 361.046C539.688 361.437 540.069 361.989 540.17 362.702C540.313 363.712 540.032 365.145 539.325 367.003C539.112 367.639 538.335 368.779 536.992 370.424C535.709 372.06 534.66 373.209 533.845 373.87C532.367 374.988 530.648 375.686 528.687 375.964C527.202 376.175 525.616 376.096 523.927 375.73ZM527.68 354.746C529.055 354.187 530.096 353.615 530.8 353.031C531.556 352.378 532.364 351.234 533.223 349.597C533.496 348.104 533.463 347.23 533.124 346.975C532.717 346.669 532.276 346.55 531.8 346.617C531.206 346.701 530.54 347.129 529.801 347.9C529.232 348.163 528.48 348.845 527.546 349.947C526.662 350.981 525.927 351.994 525.34 352.986C524.745 353.919 524.609 354.454 524.931 354.59C524.838 354.785 525.156 354.891 525.885 354.909C526.607 354.867 527.205 354.813 527.68 354.746ZM582.292 371.822C580.849 371.905 579.36 371.661 577.825 371.091C576.29 370.521 574.869 369.904 573.563 369.241C572.258 368.578 571.376 368.127 570.918 367.889C569.765 367.022 568.841 366.062 568.146 365.009C567.443 363.897 566.779 362.415 566.153 360.565C565.933 359.869 565.785 359.253 565.709 358.719C565.457 356.937 565.447 354.726 565.679 352.087C565.962 349.381 566.329 347.269 566.78 345.75C567.641 342.416 569.807 336.959 573.277 329.377C573.481 329.105 573.609 328.936 573.66 328.868C573.762 328.732 573.783 328.669 573.723 328.677C573.715 328.618 573.711 328.588 573.711 328.588C573.652 328.172 574.252 326.208 575.512 322.697C576.37 321.485 576.745 320.492 576.635 319.72C576.576 319.304 576.441 318.99 576.229 318.778C576.017 318.565 576.183 318.027 576.727 317.162C577.263 316.237 578.028 315.22 579.022 314.11C580.067 312.931 581.192 311.893 582.398 310.995C583.825 309.52 585.311 308.673 586.856 308.454C587.331 308.387 587.73 308.421 588.052 308.558C588.425 308.626 588.663 308.804 588.764 309.093C588.815 309.449 589.986 309.162 592.278 308.231C593.314 307.842 594.065 307.584 594.532 307.457C594.727 307.127 595.288 306.805 596.213 306.492C597.189 306.111 598.552 305.676 600.3 305.186C601.259 305.11 602.417 304.946 603.775 304.693C605.193 304.432 606.105 304.242 606.513 304.123C606.912 303.946 607.543 304.129 608.408 304.673C609.333 305.208 610.104 305.947 610.722 306.89C610.892 307.23 610.989 307.489 611.014 307.667C611.141 308.558 610.686 309.41 609.65 310.224C608.605 310.978 607.03 311.625 604.925 312.166C602.769 312.774 600.881 313.345 599.259 313.878C597.638 314.41 595.618 315.121 593.199 316.009L591.378 316.631C589.578 317.189 588.267 317.769 587.443 318.37C586.619 318.972 585.816 320.146 585.033 321.893C584.66 322.249 584.234 323.097 583.758 324.437C583.273 325.718 582.796 327.058 582.328 328.458L580.886 331.116C579.781 333.151 579.092 334.491 578.82 335.136C578.599 335.713 578.594 336.107 578.806 336.32C579.052 336.345 579.481 336.375 580.091 336.41C580.762 336.436 581.309 336.45 581.733 336.45C582.226 336.077 582.939 335.764 583.873 335.511C584.806 335.257 585.473 335.041 585.872 334.864L587.756 334.051C591.305 332.579 593.911 331.513 595.575 330.853C597.239 330.193 598.478 329.744 599.293 329.508C599.556 329.228 599.896 329.058 600.312 329C600.965 328.907 601.635 329.145 602.322 329.715C603.06 330.216 603.636 330.862 604.051 331.651C604.406 332.449 604.601 332.967 604.634 333.205C604.778 334.215 604.293 335.071 603.181 335.774C602.06 336.418 599.776 337.408 596.33 338.745C591.338 340.725 588.214 341.985 586.958 342.527C583.256 344.203 580.485 345.172 578.643 345.433C577.099 345.651 576.284 345.252 576.201 344.233C575.624 344.012 575.076 344.635 574.557 346.103C574.037 347.57 573.654 349.351 573.405 351.447C573.216 353.534 573.227 355.32 573.437 356.805C573.547 357.578 573.729 358.219 573.983 358.728C574.719 360.078 575.694 361.182 576.906 362.041C578.11 362.84 579.701 363.372 581.677 363.637C582.102 363.637 582.615 363.625 583.218 363.6C583.879 363.567 584.626 363.492 585.458 363.374C586.646 363.205 587.801 362.799 588.921 362.156C593.446 360.727 596.561 359.194 598.269 357.559C598.549 357.398 598.787 357.152 598.982 356.821C599.237 356.482 599.484 356.296 599.721 356.262L599.657 356.453C599.666 356.512 599.827 356.368 600.141 356.021C600.447 355.614 600.783 355.203 601.148 354.787C602.61 353.126 604.35 352.152 606.37 351.866C607.083 351.765 607.694 351.799 608.203 351.97C608.763 352.072 609.085 352.208 609.17 352.378C609.61 352.921 609.567 353.897 609.039 355.305C608.511 356.713 607.576 358.239 606.234 359.884C604.951 361.52 603.464 363.004 601.774 364.334C599.082 366.291 595.975 367.883 592.452 369.109C588.997 370.387 585.61 371.291 582.292 371.822ZM644.437 356.743C643.546 356.869 642.621 356.757 641.663 356.409C640.704 356.06 639.89 355.448 639.221 354.573L638.649 353.745C637.65 351.826 637.016 349.916 636.746 348.015L636.191 344.095C636.098 343.441 635.993 343.123 635.874 343.14C635.398 343.207 633.623 345.428 630.546 349.803C628.37 352.838 626.437 355.233 624.747 356.988C623.107 358.675 621.931 359.568 621.218 359.669C620.98 359.703 620.387 359.575 619.437 359.286C618.478 358.937 617.863 358.66 617.592 358.456C617.117 358.099 616.778 357.632 616.575 357.055C616.372 356.478 616.153 355.358 615.917 353.694C615.648 351.793 615.731 349.6 616.166 347.114C616.594 344.569 617.442 341.146 618.711 336.846C619.068 335.946 619.4 334.869 619.707 333.614C620.636 330.331 621.61 328.011 622.63 326.655C623.105 326.587 623.436 326.571 623.622 326.605C624.403 326.555 625.345 326.785 626.447 327.295C627.609 327.797 628.385 328.566 628.774 329.602C628.917 330.612 628.912 331.643 628.758 332.695C628.604 333.747 628.097 335.091 627.239 336.728C626.711 337.711 626.124 339.764 625.475 342.886C625.246 343.403 624.935 344.205 624.543 345.291C624.203 346.308 624.041 346.877 624.058 346.996C624.126 347.047 624.287 346.903 624.542 346.563C624.789 346.165 625.039 345.796 625.294 345.457L627.359 342.71C631.387 337.352 634.67 334.432 637.208 333.951C638.515 333.766 639.77 334.285 640.973 335.508C642.177 336.732 642.913 338.294 643.183 340.195C643.233 340.551 643.317 341.57 643.434 343.25L644.154 348.329C645.47 347.779 646.463 347.305 647.134 346.907C648.543 346.162 650.041 345.616 651.629 345.27C651.653 346.297 651.278 347.713 650.504 349.52C649.789 351.318 648.866 352.933 647.736 354.366C646.606 355.799 645.506 356.591 644.437 356.743ZM682.767 327.04C683.072 327.482 683.275 328.059 683.376 328.772C683.57 330.138 683.305 331.479 682.583 332.793C682.447 333.116 682.187 333.637 681.805 334.358C681.413 335.019 681.086 335.702 680.822 336.406C680.558 337.11 680.396 337.89 680.336 338.747C680.318 339.901 680.155 341.318 679.847 342.998C679.591 344.61 679.412 345.696 679.309 346.256C679.011 347.571 678.712 349.31 678.412 351.473L677.77 357.2C677.103 361.9 676.08 365.59 674.703 368.27C673.333 371.009 671.965 372.9 670.598 373.942C669.868 374.348 669.146 374.602 668.433 374.703C667.126 374.888 665.697 374.637 664.145 373.947C662.661 373.309 661.308 372.319 660.088 370.977C659.308 370.179 658.237 368.604 656.873 366.252C655.518 363.959 655.006 362.699 655.337 362.47C655.457 361.604 656.259 361.066 657.745 360.856C658.457 360.755 659.124 360.752 659.743 360.846C660.371 360.999 660.735 361.22 660.837 361.509C661.59 362.977 662.412 364.073 663.302 364.795C663.887 365.5 664.476 366.023 665.07 366.363C665.723 366.694 666.317 366.822 666.851 366.747C667.208 366.696 667.437 366.603 667.539 366.467C668.388 365.62 668.979 364.657 669.311 363.58C669.703 362.494 670.15 360.522 670.654 357.663C671.347 352.717 671.937 349.179 672.423 347.05C672.508 346.371 672.7 345.587 672.998 344.696L671.571 346.171C671.044 346.73 670.462 347.328 669.825 347.963C669.18 348.54 668.466 349.065 667.685 349.539C667.345 350.133 666.343 350.548 664.68 350.783C663.432 350.96 662.219 350.95 661.04 350.754C659.827 350.32 658.869 349.759 658.165 349.07C657.521 348.374 656.792 347.295 655.979 345.835C655.674 345.394 655.45 344.668 655.307 343.658C654.945 341.103 655.152 338.287 655.928 335.207C656.728 332.73 658.161 330.012 660.226 327.053C662.291 324.094 664.177 322.221 665.884 321.434C667.208 320.519 668.643 319.952 670.188 319.733C670.841 319.641 671.325 319.633 671.639 319.709C672.606 319.694 673.378 319.796 673.955 320.017C674.531 320.239 675.519 320.796 676.918 321.688C680.174 324.136 682.124 325.92 682.767 327.04ZM671.835 337.134C672.694 335.497 673.218 334.06 673.406 332.821C673.653 331.574 673.617 330.246 673.296 328.837C673.026 327.36 672.267 326.71 671.02 326.887C669.772 327.064 668.724 327.576 667.874 328.424C667.084 329.263 666.077 330.709 664.853 332.761C664.13 334.075 663.589 335.606 663.231 337.354C662.907 338.915 662.821 340.23 662.972 341.299C663.157 342.606 663.627 343.357 664.382 343.553C666.275 343.225 667.714 342.687 668.699 341.942C669.684 341.196 670.73 339.594 671.835 337.134ZM695.855 314.187C695.202 313.855 694.651 313.388 694.202 312.785C693.753 312.182 693.457 311.588 693.313 311.002C693.17 310.416 693.179 310.052 693.34 309.907C693.637 309.441 693.914 308.826 694.169 308.063C694.425 307.299 694.621 306.757 694.757 306.434C695.08 305.298 695.357 304.471 695.587 303.953C695.885 303.063 696.208 302.562 696.556 302.452C696.997 302.147 697.367 301.974 697.664 301.932C698.436 301.822 699.306 301.972 700.272 302.38C701.299 302.78 702.1 303.303 702.676 303.948C703.227 304.84 703.553 305.642 703.654 306.355C703.856 307.781 703.396 309.452 702.273 311.368C701.789 312.225 701.16 312.92 700.387 313.454C699.615 313.987 698.812 314.313 697.981 314.431C697.149 314.549 696.44 314.467 695.855 314.187ZM691.295 351.284C690.346 350.57 689.72 349.144 689.416 347.005C689.257 345.876 689.283 344.994 689.496 344.358C689.454 344.061 689.463 343.696 689.522 343.263C689.582 342.83 689.604 342.555 689.587 342.436C689.477 342.088 689.576 341.074 689.883 339.394C690.369 337.689 690.91 335.098 691.508 331.619C692.166 328.133 692.601 325.647 692.815 324.162C692.773 323.865 692.858 323.611 693.07 323.399C693.274 323.127 693.61 322.928 694.077 322.802C694.696 322.471 695.57 322.651 696.698 323.339C697.817 323.968 698.775 324.742 699.572 325.659C699.979 325.965 700.224 326.415 700.308 327.009C700.435 327.9 700.225 329.202 699.68 330.916C699.476 331.611 699.293 332.455 699.13 333.448C699.027 334.432 698.946 335.353 698.885 336.21C698.4 337.915 698.046 339.48 697.824 340.905C697.755 341.702 697.72 342.313 697.72 342.738C697.616 344.995 697.431 346.475 697.168 347.179C697.022 348.715 696.677 349.915 696.133 350.78C695.58 351.585 694.888 352.047 694.056 352.165C693.047 352.308 692.126 352.014 691.295 351.284ZM739.106 324.783C739.241 325.733 739.111 328.236 738.716 332.292C738.673 332.843 738.57 334.04 738.406 335.881C738.294 337.654 738.271 338.991 738.338 339.89C738.431 340.544 738.646 341.21 738.985 341.889C739.375 342.501 739.578 342.866 739.595 342.984C739.679 343.579 739.496 344.21 739.045 344.88C738.586 345.491 737.941 345.855 737.109 345.973C735.624 346.183 734.259 345.74 733.013 344.644C731.758 343.489 730.983 341.872 730.689 339.793C730.436 338.01 730.618 334.591 731.235 329.534C731.261 328.864 731.283 328.376 731.3 328.071C731.368 327.697 731.386 327.392 731.352 327.154C731.31 326.857 731.2 326.721 731.022 326.747C730.606 326.806 730.054 327.187 729.366 327.89C728.669 328.535 727.926 329.276 727.136 330.115L725.173 332.302C724.307 333.031 722.548 334.947 719.897 338.049C719.524 338.405 718.632 339.38 717.221 340.974C715.862 342.5 715.063 343.279 714.826 343.313C714.588 343.347 714.028 343.244 713.146 343.006C712.315 342.699 711.501 342.3 710.704 341.807C709.966 341.305 709.542 340.668 709.433 339.896C709.307 339.005 709.551 336.88 710.166 333.52C710.78 330.161 711.611 326.831 712.659 323.532C712.77 323.031 712.851 322.11 712.904 320.77C712.838 318.598 713.035 317.206 713.494 316.596C713.766 315.951 714.229 315.583 714.882 315.49C716.071 315.322 717.254 315.76 718.432 316.805C719.67 317.841 720.39 319.073 720.592 320.498C720.735 321.508 720.627 322.887 720.269 324.635C719.961 326.314 719.71 327.32 719.515 327.65C719.676 327.506 719.99 327.159 720.458 326.608C720.976 325.989 721.668 325.315 722.534 324.586C724.335 322.755 725.703 321.501 726.637 320.823C727.563 320.086 728.213 319.54 728.586 319.184C728.799 318.972 728.96 318.828 729.07 318.751C729.232 318.607 729.342 318.531 729.402 318.523C729.571 318.438 729.881 318.273 730.331 318.027C730.832 317.714 731.231 317.536 731.528 317.494C732.419 317.368 733.387 317.564 734.43 318.083C735.524 318.534 736.117 319.086 736.21 319.739C736.235 319.918 736.489 320.215 736.972 320.631C737.447 320.988 737.879 321.472 738.269 322.084C738.65 322.636 738.929 323.535 739.106 324.783ZM758.861 344.89C752.089 345.85 748.156 342.468 747.061 334.745C746.665 331.953 746.902 328.708 747.772 325.009C748.693 321.243 749.995 317.816 751.678 314.729C753.413 311.575 755.252 309.375 757.197 308.13C758.241 307.376 759.506 306.894 760.991 306.683C763.665 306.304 766.066 306.57 768.195 307.48C770.374 308.323 771.692 310.348 772.146 313.556C772.407 315.397 772.07 317.506 771.134 319.881C770.198 322.255 768.888 324.35 767.206 326.164C765.575 327.91 763.869 328.909 762.086 329.162C759.413 329.541 757.034 328.999 754.948 327.537C754.224 329.7 753.993 331.703 754.254 333.544C754.464 335.029 754.807 336.163 755.281 336.944C755.747 337.665 756.633 337.934 757.94 337.749C759.188 337.572 760.172 337.25 760.894 336.784C761.616 336.319 762.27 335.802 762.856 335.234C763.442 334.666 763.897 334.238 764.219 333.95L764.55 333.721L764.461 333.734C765.447 332.988 766.156 332.433 766.589 332.069C767.073 331.637 767.485 331.336 767.824 331.166C768.716 331.04 769.585 331.19 770.433 331.615C771.281 332.04 771.76 332.639 771.869 333.411C771.954 334.005 771.558 335.061 770.682 336.579C769.798 338.038 768.83 339.114 767.777 339.809L766.783 340.495L766.872 340.482C766.439 341.271 765.954 341.703 765.42 341.779L764.707 341.88C764.537 342.389 763.802 342.978 762.503 343.647C761.263 344.307 760.049 344.722 758.861 344.89ZM760.452 322.758C762.115 322.522 763.38 321.616 764.248 320.038C765.174 318.453 765.537 316.947 765.335 315.521C765.242 314.868 764.979 314.299 764.547 313.815C764.174 313.322 763.721 313.114 763.186 313.189C762.176 313.333 761.115 313.968 760.002 315.095C758.889 316.222 757.967 317.626 757.235 319.305L756.342 321.34C756.563 321.188 756.733 321.103 756.851 321.086C757.327 321.019 757.713 321.176 758.009 321.559C758.306 321.941 758.624 322.259 758.963 322.514C759.302 322.769 759.798 322.85 760.452 322.758ZM785.252 338.696C783.182 338.201 781.558 337.219 780.38 335.75C779.254 334.213 778.505 332.137 778.134 329.524C778.05 328.93 777.958 327.852 777.858 326.29C777.85 325.807 777.8 325.238 777.707 324.585C777.564 323.575 777.34 322.849 777.035 322.407C776.722 321.906 776.23 321.431 775.56 320.98C775.357 320.827 774.886 320.5 774.149 319.999C773.411 319.497 773.051 319.094 773.068 318.788L773.03 318.521C772.971 318.105 772.997 317.647 773.108 317.146C773.27 316.578 773.432 316.222 773.593 316.078C773.763 315.993 774.094 315.764 774.586 315.392C775.079 315.019 775.482 314.871 775.796 314.947C776.034 314.914 776.411 315.012 776.929 315.242C777.505 315.463 777.811 315.692 777.844 315.93C778.302 316.592 779.058 315.303 780.114 312.063C780.769 310.698 781.725 309.32 782.983 307.93C784.231 306.48 785.404 305.344 786.499 304.523C786.89 304.285 787.777 303.917 789.161 303.418C790.595 302.851 791.728 302.509 792.56 302.391C793.511 302.256 794.664 302.487 796.021 303.082C797.438 303.669 798.625 304.349 799.583 305.123C800.957 305.837 801.82 307.442 802.174 309.937C802.384 311.422 802.328 312.733 802.004 313.869C801.893 314.794 800.898 316.329 799.021 318.474C797.194 320.55 795.665 321.949 794.434 322.669C793.169 323.151 791.735 323.506 790.131 323.733C788.527 323.96 787.407 323.968 786.77 323.755C786.321 323.576 785.981 323.745 785.752 324.263C785.573 324.712 785.504 325.722 785.545 327.292L785.582 328.195C785.674 328.849 785.911 329.452 786.293 330.004C786.809 330.658 787.267 331.108 787.666 331.354C788.064 331.601 788.62 331.674 789.333 331.573L790.122 331.37C790.767 331.218 791.404 330.794 792.033 330.099C792.721 329.396 793.498 328.467 794.365 327.314C795.291 326.153 795.831 325.47 795.984 325.267C796.197 324.631 796.957 324.22 798.263 324.035C798.798 323.959 799.494 323.951 800.351 324.012C801.012 324.403 801.394 324.955 801.495 325.668C801.638 326.678 801.356 328.111 800.65 329.969C800.437 330.605 799.659 331.745 798.317 333.39C797.034 335.026 795.984 336.175 795.169 336.836C793.691 337.954 791.972 338.652 790.012 338.93C788.527 339.141 786.94 339.062 785.252 338.696ZM789.005 317.711C790.38 317.153 791.42 316.581 792.125 315.997C792.881 315.344 793.688 314.2 794.547 312.563C794.82 311.07 794.787 310.196 794.448 309.941C794.041 309.635 793.6 309.516 793.125 309.583C792.531 309.667 791.864 310.095 791.125 310.866C790.556 311.129 789.805 311.811 788.87 312.913C787.986 313.947 787.251 314.96 786.665 315.952C786.07 316.885 785.933 317.42 786.256 317.556C786.162 317.751 786.48 317.857 787.21 317.875C787.931 317.833 788.529 317.779 789.005 317.711ZM811.64 334.411C811.224 334.47 810.618 334.252 809.821 333.759C809.083 333.258 808.621 332.778 808.435 332.32C808.359 332.209 808.291 331.946 808.232 331.53C808.123 330.758 808.265 329.193 808.658 326.834L808.877 323.894C809.101 321.196 809.324 318.922 809.547 317.073C809.675 316.691 809.888 315.631 810.187 313.892C810.358 312.534 810.652 311.189 811.07 309.858C811.404 307.083 812.158 304.28 813.332 301.447C813.468 301.125 813.714 300.726 814.071 300.252C814.428 299.777 814.696 299.527 814.874 299.501C815.18 299.095 815.66 298.845 816.313 298.752C817.264 298.617 818.171 298.822 819.036 299.366C819.935 300.148 820.456 301.044 820.599 302.053C820.759 303.182 820.541 304.637 819.945 306.418C819.655 307.793 819.118 309.566 818.335 311.737C817.714 313.34 817.348 314.392 817.237 314.892C817.815 313.841 819.107 311.84 821.113 308.889C821.716 308.016 822.311 307.295 822.897 306.727C823.475 306.1 824.358 305.278 825.547 304.261C826.72 303.125 827.667 302.324 828.388 301.859C829.102 301.333 829.963 300.999 830.973 300.856C831.449 300.789 831.809 300.768 832.055 300.793C832.819 300.625 833.693 301.016 834.676 301.967C835.719 302.91 836.337 304.065 836.53 305.431C836.606 305.966 836.593 306.513 836.49 307.073C835.761 307.056 835.247 307.068 834.95 307.11C833.762 307.278 832.726 307.667 831.843 308.277C831.02 308.879 830.344 309.459 829.818 310.019C829.282 310.519 828.934 310.841 828.773 310.985C826.887 312.646 824.683 314.837 822.16 317.558C820.902 318.948 819.98 320.139 819.394 321.131C818.807 322.123 818.377 323.154 818.105 324.223C818.036 324.596 817.67 326.072 817.005 328.651C816.332 331.17 815.758 332.676 815.282 333.167C815.077 333.863 814.351 334.299 813.104 334.476C812.45 334.568 811.963 334.547 811.64 334.411Z" fill="#6B6262"/>
<path d="M1107.7 229.7C1105.63 229.7 1103.73 229.133 1102 228C1100.27 226.933 1099.4 225.6 1099.4 224C1099.4 222.867 1099.83 221 1100.7 218.4C1105.83 202.667 1109.97 190.4 1113.1 181.6C1116.23 172.8 1120.07 163.367 1124.6 153.3C1121.2 154.1 1117.7 155.433 1114.1 157.3C1112.5 158.1 1111.53 158.5 1111.2 158.5C1110.6 158.5 1109.8 158.033 1108.8 157.1C1107.87 156.1 1107.4 155.267 1107.4 154.6C1116.33 150.867 1124.17 149 1130.9 149C1135.3 149 1139.63 149.767 1143.9 151.3C1148.23 152.833 1151.8 155.1 1154.6 158.1C1157.4 161.033 1158.8 164.533 1158.8 168.6C1158.8 175 1156.23 179.933 1151.1 183.4C1145.97 186.867 1140.33 189.2 1134.2 190.4C1128.13 191.533 1123 192.1 1118.8 192.1H1118.2L1112.6 212.2C1111.2 217.533 1109.57 223.367 1107.7 229.7ZM1119.1 189C1124.43 188.667 1129.47 187.633 1134.2 185.9C1139 184.167 1142.9 181.7 1145.9 178.5C1148.97 175.3 1150.5 171.467 1150.5 167C1150.5 162.4 1148.73 158.867 1145.2 156.4C1141.67 153.933 1137.37 152.633 1132.3 152.5C1128.3 160.233 1123.9 172.4 1119.1 189ZM1168.41 223.6C1165.94 223.6 1163.94 222.933 1162.41 221.6C1160.87 220.333 1160.11 218.6 1160.11 216.4C1160.11 215.133 1160.34 213.767 1160.81 212.3C1161.34 210.767 1162.11 208.933 1163.11 206.8C1163.97 204.933 1164.64 203.367 1165.11 202.1C1165.57 200.767 1165.81 199.6 1165.81 198.6C1165.81 196.067 1164.14 193.933 1160.81 192.2C1159.47 195.533 1157.91 198.9 1156.11 202.3C1154.37 205.7 1152.81 208.567 1151.41 210.9L1149.91 208C1152.97 202.533 1155.67 196.5 1158.01 189.9C1157.34 189.233 1157.01 188.333 1157.01 187.2C1157.01 185.467 1157.54 183.833 1158.61 182.3C1159.67 180.767 1160.71 180 1161.71 180C1162.37 180 1162.91 180.4 1163.31 181.2C1163.77 182 1164.01 182.667 1164.01 183.2C1164.01 183.467 1163.84 184.067 1163.51 185C1163.24 185.867 1163.04 186.5 1162.91 186.9C1162.97 187.367 1163.24 187.833 1163.71 188.3C1164.17 188.7 1165.04 189.3 1166.31 190.1C1168.64 191.633 1170.44 193.133 1171.71 194.6C1173.04 196 1173.71 197.9 1173.71 200.3C1173.71 201.767 1173.44 203.233 1172.91 204.7C1172.44 206.167 1171.71 207.933 1170.71 210C1169.24 212.933 1168.51 215.033 1168.51 216.3C1168.51 217.833 1169.34 218.6 1171.01 218.6C1173.01 218.6 1175.17 217.8 1177.51 216.2C1179.91 214.6 1182.07 212.667 1184.01 210.4C1186.01 208.067 1187.47 205.9 1188.41 203.9L1190.81 205.7C1189.47 208.7 1187.61 211.567 1185.21 214.3C1182.81 217.033 1180.11 219.267 1177.11 221C1174.17 222.733 1171.27 223.6 1168.41 223.6ZM1192.83 224.2C1190.1 224.2 1188.1 223.3 1186.83 221.5C1185.63 219.7 1185.03 217.467 1185.03 214.8C1185.03 212 1185.6 209.1 1186.73 206.1C1187.93 203.1 1189.47 200.6 1191.33 198.6C1193.2 196.6 1195.1 195.6 1197.03 195.6C1197.83 195.6 1198.87 195.867 1200.13 196.4C1200.53 193.333 1201.6 190.8 1203.33 188.8C1205.13 186.8 1207.63 185.8 1210.83 185.8C1213.5 185.8 1215.47 186.567 1216.73 188.1C1218 189.567 1218.63 191.5 1218.63 193.9C1218.63 196.233 1218 198.9 1216.73 201.9C1215.53 204.9 1213.97 207.9 1212.03 210.9C1212.83 211.3 1213.77 211.5 1214.83 211.5C1216.7 211.5 1218.7 210.9 1220.83 209.7C1222.97 208.433 1224.6 206.533 1225.73 204L1227.53 205.3C1226.13 208.5 1224.23 210.933 1221.83 212.6C1219.5 214.267 1217.07 215.1 1214.53 215.1C1213 215.1 1211.33 214.8 1209.53 214.2C1207.07 217.133 1204.37 219.533 1201.43 221.4C1198.5 223.267 1195.63 224.2 1192.83 224.2ZM1208.63 208.8C1210.3 206.333 1211.67 203.767 1212.73 201.1C1213.87 198.433 1214.43 196.033 1214.43 193.9C1214.43 190.967 1213.5 189.5 1211.63 189.5C1210.77 189.5 1209.87 189.933 1208.93 190.8C1208 191.667 1207.23 192.833 1206.63 194.3C1206.03 195.7 1205.73 197.267 1205.73 199C1205.73 200.533 1206 202.3 1206.53 204.3C1207.07 206.233 1207.77 207.733 1208.63 208.8ZM1196.43 219.1C1197.63 219.1 1199.1 218.433 1200.83 217.1C1202.57 215.767 1204.3 214.067 1206.03 212C1202.23 208.667 1200.23 203.767 1200.03 197.3C1199.23 197.7 1198.27 198.933 1197.13 201C1196 203.067 1195.03 205.367 1194.23 207.9C1193.43 210.433 1193.03 212.633 1193.03 214.5C1193.03 217.567 1194.17 219.1 1196.43 219.1ZM1237.34 178.6C1236.01 178.6 1234.84 178.267 1233.84 177.6C1232.84 176.933 1232.34 176 1232.34 174.8C1232.34 173.2 1233.21 171.8 1234.94 170.6C1236.74 169.4 1238.61 168.8 1240.54 168.8C1241.74 168.8 1242.71 169.1 1243.44 169.7C1244.24 170.3 1244.64 171.167 1244.64 172.3C1244.64 173.967 1243.91 175.433 1242.44 176.7C1240.97 177.967 1239.27 178.6 1237.34 178.6ZM1210.04 249C1208.11 249 1206.57 248.467 1205.44 247.4C1204.31 246.333 1203.74 244.9 1203.74 243.1C1203.74 239.833 1205.61 236.433 1209.34 232.9C1213.07 229.433 1217.77 226.567 1223.44 224.3C1225.84 218.367 1227.74 211.6 1229.14 204C1228.21 205.467 1227.67 206.3 1227.54 206.5L1225.64 209.7L1223.94 207C1224.87 205.267 1225.77 203.367 1226.64 201.3C1227.51 199.167 1228.04 197.8 1228.24 197.2C1229.71 193.333 1230.97 190.5 1232.04 188.7C1233.11 186.9 1234.37 186 1235.84 186C1236.71 186 1237.44 186.367 1238.04 187.1C1238.64 187.767 1238.94 188.633 1238.94 189.7C1238.94 191.5 1238.24 195.533 1236.84 201.8C1235.51 208.067 1233.81 214.267 1231.74 220.4C1235.34 218.4 1238.37 216.3 1240.84 214.1C1243.37 211.9 1245.91 208.667 1248.44 204.4L1250.24 205.6C1248.57 208.933 1246.81 211.7 1244.94 213.9C1243.14 216.1 1241.37 217.833 1239.64 219.1C1237.91 220.3 1235.81 221.6 1233.34 223L1230.14 224.9C1227.54 231.833 1224.54 237.567 1221.14 242.1C1217.67 246.7 1213.97 249 1210.04 249ZM1208.94 244.2C1210.27 244.2 1212.07 242.9 1214.34 240.3C1216.61 237.7 1218.87 234.1 1221.14 229.5C1216.81 231.7 1213.51 233.933 1211.24 236.2C1208.91 238.533 1207.74 240.633 1207.74 242.5C1207.74 243.633 1208.14 244.2 1208.94 244.2ZM1257.7 225.4C1253.5 225.4 1250.23 224.267 1247.9 222C1245.56 219.733 1244.4 216.833 1244.4 213.3C1244.4 209.433 1245.7 205.267 1248.3 200.8C1250.9 196.267 1254.23 192.5 1258.3 189.5C1262.36 186.433 1266.36 184.9 1270.3 184.9C1272.36 184.9 1274.1 185.433 1275.5 186.5C1276.9 187.5 1277.6 189.2 1277.6 191.6C1277.6 194.8 1276.36 197.833 1273.9 200.7C1271.43 203.5 1268.23 205.8 1264.3 207.6C1260.43 209.4 1256.46 210.533 1252.4 211C1252.26 211.667 1252.2 212.433 1252.2 213.3C1252.2 215.033 1252.66 216.767 1253.6 218.5C1254.6 220.233 1256.7 221.1 1259.9 221.1C1263.96 221.1 1268.1 219.467 1272.3 216.2C1276.56 212.867 1280 208.733 1282.6 203.8L1284.6 205.4C1281.93 211.4 1278.1 216.233 1273.1 219.9C1268.16 223.567 1263.03 225.4 1257.7 225.4ZM1253.5 207.3C1255.9 207.033 1258.56 206.067 1261.5 204.4C1264.5 202.733 1267.03 200.7 1269.1 198.3C1271.16 195.833 1272.2 193.433 1272.2 191.1C1272.2 190.367 1272.06 189.867 1271.8 189.6C1271.53 189.333 1271.1 189.2 1270.5 189.2C1268.56 189.2 1266.43 190.133 1264.1 192C1261.83 193.8 1259.73 196.1 1257.8 198.9C1255.86 201.7 1254.43 204.5 1253.5 207.3ZM1291.48 226.6C1287.88 226.6 1284.98 225.467 1282.78 223.2C1280.65 221 1279.58 217.733 1279.58 213.4C1279.58 209.133 1280.65 204.967 1282.78 200.9C1284.98 196.833 1287.81 193.533 1291.28 191C1294.75 188.467 1298.25 187.2 1301.78 187.2C1304.45 187.2 1306.41 187.867 1307.68 189.2C1309.01 190.533 1309.68 192.2 1309.68 194.2C1309.68 196.2 1309.18 198.067 1308.18 199.8C1307.25 201.467 1306.08 202.3 1304.68 202.3C1303.41 202.3 1302.38 201.667 1301.58 200.4C1302.38 199.867 1303.11 198.933 1303.78 197.6C1304.45 196.267 1304.78 194.7 1304.78 192.9C1304.78 191.767 1304.15 191.2 1302.88 191.2C1300.75 191.2 1298.45 192.467 1295.98 195C1293.51 197.533 1291.45 200.6 1289.78 204.2C1288.11 207.8 1287.28 211.067 1287.28 214C1287.28 216.133 1287.81 217.933 1288.88 219.4C1289.95 220.8 1291.78 221.5 1294.38 221.5C1296.91 221.5 1299.55 220.767 1302.28 219.3C1305.08 217.833 1307.68 215.767 1310.08 213.1C1312.48 210.367 1314.38 207.233 1315.78 203.7L1317.78 205.5C1316.18 209.5 1313.95 213.1 1311.08 216.3C1308.28 219.5 1305.15 222 1301.68 223.8C1298.21 225.667 1294.81 226.6 1291.48 226.6ZM1322.58 225.6C1319.51 225.6 1317.11 224.7 1315.38 222.9C1313.65 221.167 1312.78 218.567 1312.78 215.1C1312.78 212.5 1313.28 209.2 1314.28 205.2C1315.28 201.133 1316.61 196.833 1318.28 192.3C1316.55 191.967 1315.38 191.667 1314.78 191.4V188.3C1316.38 188.5 1317.98 188.667 1319.58 188.8C1322.58 181.267 1325.78 174.8 1329.18 169.4C1332.65 164 1335.45 161.3 1337.58 161.3C1338.31 161.3 1338.95 161.567 1339.48 162.1C1340.08 162.633 1340.38 163.333 1340.38 164.2C1340.38 165.267 1339.91 166.7 1338.98 168.5C1338.05 170.3 1336.51 173.033 1334.38 176.7C1331.45 181.633 1329.15 185.767 1327.48 189.1C1335.15 189.1 1341.25 188.867 1345.78 188.4V191.7C1337.91 192.5 1331.21 192.9 1325.68 192.9C1322.21 201.1 1320.48 207.8 1320.48 213C1320.48 215.733 1320.91 217.667 1321.78 218.8C1322.65 219.933 1324.01 220.5 1325.88 220.5C1329.21 220.5 1332.61 219 1336.08 216C1339.61 212.933 1342.68 208.8 1345.28 203.6L1346.68 204.6C1343.95 210.8 1340.41 215.867 1336.08 219.8C1331.75 223.667 1327.25 225.6 1322.58 225.6ZM1353.99 226.1C1349.32 226.1 1345.86 224.733 1343.59 222C1341.39 219.333 1340.29 216.133 1340.29 212.4C1340.29 209.8 1340.76 208 1341.69 207C1342.62 205.933 1343.66 205.133 1344.79 204.6C1345.99 204.067 1346.69 203.7 1346.89 203.5C1351.16 199.1 1354.39 194.533 1356.59 189.8V188.8C1356.59 186.333 1356.99 184.5 1357.79 183.3C1358.66 182.1 1359.76 181.5 1361.09 181.5C1362.56 181.5 1363.36 182.167 1363.49 183.5C1363.49 183.833 1363.39 184.333 1363.19 185C1363.06 185.667 1362.99 186.367 1362.99 187.1C1362.99 188.367 1363.19 189.7 1363.59 191.1C1363.99 192.5 1364.62 194.4 1365.49 196.8C1366.56 199.733 1367.36 202.267 1367.89 204.4C1368.49 206.533 1368.79 208.7 1368.79 210.9C1368.79 212.033 1368.66 213.4 1368.39 215C1372.92 213.867 1376.86 210.1 1380.19 203.7L1381.39 204.6C1380.06 208.4 1378.19 211.467 1375.79 213.8C1373.46 216.133 1370.69 217.533 1367.49 218C1366.42 220.667 1364.69 222.667 1362.29 224C1359.89 225.4 1357.12 226.1 1353.99 226.1ZM1360.49 214.8C1360.69 214.2 1360.79 213.167 1360.79 211.7C1360.72 209.567 1360.49 207.467 1360.09 205.4C1359.69 203.333 1359.09 200.667 1358.29 197.4L1357.39 193.8C1354.12 199.467 1351.22 203.633 1348.69 206.3C1349.82 208.233 1351.42 210 1353.49 211.6C1355.56 213.133 1357.89 214.2 1360.49 214.8ZM1353.29 221.7C1354.62 221.7 1355.86 221.367 1356.99 220.7C1358.19 220.033 1359.09 219.067 1359.69 217.8C1357.09 217.267 1354.69 216.267 1352.49 214.8C1350.29 213.267 1348.52 211.633 1347.19 209.9C1346.26 210.1 1345.79 211 1345.79 212.6C1345.79 215 1346.46 217.133 1347.79 219C1349.12 220.8 1350.96 221.7 1353.29 221.7ZM1408.92 225.7C1406.59 225.7 1404.66 224.933 1403.12 223.4C1401.52 221.867 1400.72 219.7 1400.72 216.9C1400.72 213.033 1402.12 208.7 1404.92 203.9C1407.79 199.1 1411.42 195.033 1415.82 191.7C1420.22 188.367 1424.62 186.7 1429.02 186.7C1431.96 186.7 1434.39 187.467 1436.32 189C1438.32 190.467 1439.32 192.367 1439.32 194.7C1439.32 197.767 1437.42 199.367 1433.62 199.5C1436.02 200.233 1437.22 201.233 1437.22 202.5C1437.22 202.967 1436.99 203.667 1436.52 204.6C1436.06 205.533 1435.52 206.5 1434.92 207.5C1433.86 209.233 1433.02 210.767 1432.42 212.1C1431.82 213.367 1431.52 214.567 1431.52 215.7C1431.52 216.7 1431.76 217.567 1432.22 218.3C1432.76 218.967 1433.52 219.3 1434.52 219.3C1436.39 219.3 1438.76 218 1441.62 215.4C1444.56 212.8 1447.39 208.9 1450.12 203.7L1452.02 205.6C1449.56 211.133 1446.49 215.6 1442.82 219C1439.16 222.333 1435.46 224 1431.72 224C1429.06 224 1426.99 223.1 1425.52 221.3C1424.12 219.567 1423.42 217.567 1423.42 215.3C1420.42 218.9 1417.86 221.533 1415.72 223.2C1413.59 224.867 1411.32 225.7 1408.92 225.7ZM1411.02 220.6C1413.36 220.6 1416.06 218.933 1419.12 215.6C1422.26 212.2 1425.79 207.8 1429.72 202.4L1431.72 199.7C1431.92 199.367 1432.19 199.2 1432.52 199.2L1432.92 199.3C1433.26 198.233 1433.42 197 1433.42 195.6C1433.42 192.133 1432.02 190.4 1429.22 190.4C1426.29 190.4 1423.22 191.967 1420.02 195.1C1416.82 198.233 1414.12 201.967 1411.92 206.3C1409.79 210.633 1408.72 214.333 1408.72 217.4C1408.72 218.533 1408.89 219.367 1409.22 219.9C1409.62 220.367 1410.22 220.6 1411.02 220.6ZM1481.46 223C1478.92 223 1476.96 222.367 1475.56 221.1C1474.16 219.833 1473.46 218.167 1473.46 216.1C1473.46 215.233 1473.59 214.233 1473.86 213.1C1474.19 211.967 1474.52 210.833 1474.86 209.7C1475.79 206.633 1476.26 204.367 1476.26 202.9C1476.26 201.567 1475.92 200.6 1475.26 200C1474.59 199.333 1473.76 199 1472.76 199C1469.22 199 1465.66 201.233 1462.06 205.7C1458.46 210.1 1454.59 215.7 1450.46 222.5C1447.59 222.5 1445.42 221.533 1443.96 219.6L1444.86 217.1C1448.79 207.567 1450.76 200.5 1450.76 195.9C1451.29 195.3 1452.06 194.767 1453.06 194.3C1454.06 193.767 1455.02 193.5 1455.96 193.5C1457.09 193.5 1457.96 193.767 1458.56 194.3C1459.16 194.833 1459.46 195.567 1459.46 196.5C1459.46 198.3 1458.89 201.267 1457.76 205.4C1460.76 201.4 1463.86 198.133 1467.06 195.6C1470.32 193.067 1473.52 191.8 1476.66 191.8C1479.32 191.8 1481.39 192.733 1482.86 194.6C1484.32 196.4 1485.06 198.567 1485.06 201.1C1485.06 202.567 1484.86 203.967 1484.46 205.3C1484.12 206.633 1483.59 208.133 1482.86 209.8C1481.72 212.6 1481.16 214.7 1481.16 216.1C1481.16 217.1 1481.39 217.833 1481.86 218.3C1482.32 218.767 1482.89 219 1483.56 219C1485.76 219 1488.12 217.5 1490.66 214.5C1493.26 211.433 1495.59 207.833 1497.66 203.7L1499.36 205.1C1496.96 210.633 1494.29 215 1491.36 218.2C1488.49 221.4 1485.19 223 1481.46 223ZM1501.92 224C1499.72 224 1497.76 223.233 1496.02 221.7C1494.29 220.167 1493.42 217.933 1493.42 215C1493.42 211.267 1494.86 206.967 1497.72 202.1C1500.59 197.167 1504.22 192.967 1508.62 189.5C1513.02 186.033 1517.42 184.3 1521.82 184.3C1525.09 184.3 1526.72 185.367 1526.72 187.5C1526.72 188.567 1526.32 189.333 1525.52 189.8C1524.99 189.067 1523.82 188.7 1522.02 188.7C1518.62 188.7 1515.39 190.2 1512.32 193.2C1509.26 196.133 1506.76 199.6 1504.82 203.6C1502.96 207.6 1502.02 210.933 1502.02 213.6C1502.02 214.933 1502.29 215.967 1502.82 216.7C1503.36 217.433 1504.16 217.8 1505.22 217.8C1507.09 217.8 1509.26 216.733 1511.72 214.6C1514.26 212.4 1516.82 209.3 1519.42 205.3C1522.09 201.3 1524.46 196.633 1526.52 191.3C1531.72 177.967 1536.12 167.6 1539.72 160.2C1543.32 152.733 1546.46 149 1549.12 149C1549.86 149 1550.49 149.3 1551.02 149.9C1551.62 150.433 1551.92 151.133 1551.92 152C1551.92 153.133 1551.39 154.867 1550.32 157.2C1549.32 159.533 1547.59 163.2 1545.12 168.2C1540.26 178.067 1536.39 186.7 1533.52 194.1C1530.66 201.433 1529.22 208.1 1529.22 214.1C1529.22 215.7 1529.36 216.8 1529.62 217.4C1529.96 217.933 1530.49 218.2 1531.22 218.2C1533.49 218.2 1536.09 216.867 1539.02 214.2C1541.96 211.533 1544.52 207.933 1546.72 203.4L1548.62 205C1546.42 210.467 1543.39 214.933 1539.52 218.4C1535.66 221.867 1531.82 223.6 1528.02 223.6C1525.42 223.6 1523.56 222.8 1522.42 221.2C1521.29 219.6 1520.72 217.5 1520.72 214.9C1520.72 213.367 1520.99 211.2 1521.52 208.4C1518.26 213.133 1514.89 216.933 1511.42 219.8C1507.96 222.6 1504.79 224 1501.92 224ZM1119.3 349.7C1115.23 349.7 1111.47 349 1108 347.6C1104.53 346.267 1101.73 344.2 1099.6 341.4C1097.47 338.667 1096.4 335.333 1096.4 331.4C1096.4 326.467 1097.93 322.933 1101 320.8C1104.07 318.6 1107.67 317.5 1111.8 317.5C1109.67 319.7 1108.03 322 1106.9 324.4C1105.83 326.8 1105.3 329.133 1105.3 331.4C1105.3 335 1106.67 338.067 1109.4 340.6C1112.2 343.133 1116.07 344.4 1121 344.4C1124.13 344.4 1127.1 343.867 1129.9 342.8C1132.77 341.8 1135.07 340.267 1136.8 338.2C1138.6 336.133 1139.5 333.7 1139.5 330.9C1139.5 328.433 1138.8 326.233 1137.4 324.3C1136 322.367 1134.27 320.7 1132.2 319.3C1130.2 317.9 1127.47 316.267 1124 314.4C1120.33 312.4 1117.37 310.633 1115.1 309.1C1112.83 307.567 1110.93 305.7 1109.4 303.5C1107.87 301.233 1107.1 298.633 1107.1 295.7C1107.1 291.9 1108.33 287.9 1110.8 283.7C1113.27 279.5 1116.73 276 1121.2 273.2C1125.67 270.4 1130.67 269 1136.2 269C1144.53 269 1148.7 272.5 1148.7 279.5C1148.7 282.9 1147.87 286.7 1146.2 290.9C1144.6 295.033 1142.77 298.7 1140.7 301.9C1137.77 301.3 1136.3 299.6 1136.3 296.8C1136.3 295.533 1136.53 294.1 1137 292.5C1137.53 290.833 1138.27 288.867 1139.2 286.6C1140.13 284.067 1140.83 282.067 1141.3 280.6C1141.77 279.133 1142 277.8 1142 276.6C1142 275.333 1141.6 274.4 1140.8 273.8C1140.07 273.133 1138.7 272.8 1136.7 272.8C1132.7 272.8 1129.03 273.933 1125.7 276.2C1122.37 278.467 1119.7 281.233 1117.7 284.5C1115.77 287.7 1114.8 290.667 1114.8 293.4C1114.8 295.4 1115.4 297.2 1116.6 298.8C1117.8 300.4 1119.3 301.8 1121.1 303C1122.97 304.133 1125.47 305.533 1128.6 307.2C1132.53 309.333 1135.67 311.2 1138 312.8C1140.4 314.4 1142.43 316.467 1144.1 319C1145.83 321.533 1146.7 324.567 1146.7 328.1C1146.7 332.5 1145.37 336.333 1142.7 339.6C1140.1 342.867 1136.67 345.367 1132.4 347.1C1128.2 348.833 1123.83 349.7 1119.3 349.7ZM1159.34 344.2C1156.6 344.2 1154.6 343.3 1153.34 341.5C1152.14 339.7 1151.54 337.467 1151.54 334.8C1151.54 332 1152.1 329.1 1153.24 326.1C1154.44 323.1 1155.97 320.6 1157.84 318.6C1159.7 316.6 1161.6 315.6 1163.54 315.6C1164.34 315.6 1165.37 315.867 1166.64 316.4C1167.04 313.333 1168.1 310.8 1169.84 308.8C1171.64 306.8 1174.14 305.8 1177.34 305.8C1180 305.8 1181.97 306.567 1183.24 308.1C1184.5 309.567 1185.14 311.5 1185.14 313.9C1185.14 316.233 1184.5 318.9 1183.24 321.9C1182.04 324.9 1180.47 327.9 1178.54 330.9C1179.34 331.3 1180.27 331.5 1181.34 331.5C1183.2 331.5 1185.2 330.9 1187.34 329.7C1189.47 328.433 1191.1 326.533 1192.24 324L1194.04 325.3C1192.64 328.5 1190.74 330.933 1188.34 332.6C1186 334.267 1183.57 335.1 1181.04 335.1C1179.5 335.1 1177.84 334.8 1176.04 334.2C1173.57 337.133 1170.87 339.533 1167.94 341.4C1165 343.267 1162.14 344.2 1159.34 344.2ZM1175.14 328.8C1176.8 326.333 1178.17 323.767 1179.24 321.1C1180.37 318.433 1180.94 316.033 1180.94 313.9C1180.94 310.967 1180 309.5 1178.14 309.5C1177.27 309.5 1176.37 309.933 1175.44 310.8C1174.5 311.667 1173.74 312.833 1173.14 314.3C1172.54 315.7 1172.24 317.267 1172.24 319C1172.24 320.533 1172.5 322.3 1173.04 324.3C1173.57 326.233 1174.27 327.733 1175.14 328.8ZM1162.94 339.1C1164.14 339.1 1165.6 338.433 1167.34 337.1C1169.07 335.767 1170.8 334.067 1172.54 332C1168.74 328.667 1166.74 323.767 1166.54 317.3C1165.74 317.7 1164.77 318.933 1163.64 321C1162.5 323.067 1161.54 325.367 1160.74 327.9C1159.94 330.433 1159.54 332.633 1159.54 334.5C1159.54 337.567 1160.67 339.1 1162.94 339.1ZM1242.25 344.1C1239.78 344.1 1237.88 343.367 1236.55 341.9C1235.21 340.433 1234.55 338.567 1234.55 336.3C1234.55 335.233 1234.68 334.067 1234.95 332.8C1235.28 331.467 1235.65 330.233 1236.05 329.1C1236.91 326.367 1237.35 324.367 1237.35 323.1C1237.35 321.1 1236.58 320.1 1235.05 320.1C1233.58 320.1 1231.88 321.167 1229.95 323.3C1228.01 325.433 1225.41 328.933 1222.15 333.8C1221.35 335 1220.15 337.033 1218.55 339.9L1216.65 343.3C1215.45 343.3 1214.15 343.067 1212.75 342.6C1211.35 342.133 1210.65 341.5 1210.65 340.7C1210.65 340.033 1211.35 337.9 1212.75 334.3C1214.08 330.833 1215.15 327.8 1215.95 325.2C1216.81 322.6 1217.25 320.433 1217.25 318.7C1217.25 316.7 1216.55 315.7 1215.15 315.7C1213.35 315.7 1211.01 317.133 1208.15 320C1205.28 322.8 1202.45 326.4 1199.65 330.8C1196.85 335.133 1194.68 339.433 1193.15 343.7C1191.95 343.7 1190.55 343.367 1188.95 342.7C1187.28 342.033 1186.45 341.467 1186.45 341L1192.85 315.4C1193.05 314.667 1193.75 314.033 1194.95 313.5C1196.21 312.9 1197.35 312.6 1198.35 312.6C1199.35 312.6 1200.15 312.9 1200.75 313.5C1201.41 314.1 1201.75 314.9 1201.75 315.9C1201.75 316.967 1201.28 319.367 1200.35 323.1C1203.55 318.7 1206.85 315.067 1210.25 312.2C1213.65 309.267 1216.85 307.8 1219.85 307.8C1222.11 307.8 1223.71 308.6 1224.65 310.2C1225.65 311.8 1226.15 313.8 1226.15 316.2C1226.15 317.467 1226.01 318.667 1225.75 319.8C1225.48 320.867 1225.05 322.333 1224.45 324.2C1229.11 317.333 1233.95 313.9 1238.95 313.9C1241.35 313.9 1243.08 314.633 1244.15 316.1C1245.28 317.5 1245.85 319.267 1245.85 321.4C1245.85 323.533 1245.18 326.533 1243.85 330.4C1243.78 330.667 1243.51 331.533 1243.05 333C1242.65 334.467 1242.45 335.667 1242.45 336.6C1242.45 338.4 1243.28 339.3 1244.95 339.3C1247.35 339.3 1249.68 337.767 1251.95 334.7C1254.28 331.633 1256.45 327.967 1258.45 323.7L1260.15 325.8C1258.21 330.8 1255.71 335.1 1252.65 338.7C1249.65 342.3 1246.18 344.1 1242.25 344.1ZM1267.56 345.4C1263.36 345.4 1260.09 344.267 1257.76 342C1255.43 339.733 1254.26 336.833 1254.26 333.3C1254.26 329.433 1255.56 325.267 1258.16 320.8C1260.76 316.267 1264.09 312.5 1268.16 309.5C1272.23 306.433 1276.23 304.9 1280.16 304.9C1282.23 304.9 1283.96 305.433 1285.36 306.5C1286.76 307.5 1287.46 309.2 1287.46 311.6C1287.46 314.8 1286.23 317.833 1283.76 320.7C1281.29 323.5 1278.09 325.8 1274.16 327.6C1270.29 329.4 1266.33 330.533 1262.26 331C1262.13 331.667 1262.06 332.433 1262.06 333.3C1262.06 335.033 1262.53 336.767 1263.46 338.5C1264.46 340.233 1266.56 341.1 1269.76 341.1C1273.83 341.1 1277.96 339.467 1282.16 336.2C1286.43 332.867 1289.86 328.733 1292.46 323.8L1294.46 325.4C1291.79 331.4 1287.96 336.233 1282.96 339.9C1278.03 343.567 1272.89 345.4 1267.56 345.4ZM1263.36 327.3C1265.76 327.033 1268.43 326.067 1271.36 324.4C1274.36 322.733 1276.89 320.7 1278.96 318.3C1281.03 315.833 1282.06 313.433 1282.06 311.1C1282.06 310.367 1281.93 309.867 1281.66 309.6C1281.39 309.333 1280.96 309.2 1280.36 309.2C1278.43 309.2 1276.29 310.133 1273.96 312C1271.69 313.8 1269.59 316.1 1267.66 318.9C1265.73 321.7 1264.29 324.5 1263.36 327.3ZM1299.54 345.6C1296.34 345.6 1293.84 344.7 1292.04 342.9C1290.24 341.167 1289.34 338.6 1289.34 335.2C1289.34 332.467 1289.88 328.9 1290.94 324.5C1292.08 320.033 1293.51 315.467 1295.24 310.8C1293.51 310.2 1292.31 309.767 1291.64 309.5V306.4C1292.44 306.533 1293.31 306.733 1294.24 307C1294.58 307.067 1294.91 307.133 1295.24 307.2C1295.64 307.267 1296.08 307.333 1296.54 307.4C1299.48 300 1302.54 293.767 1305.74 288.7C1309.01 283.633 1311.74 281.1 1313.94 281.1C1314.68 281.1 1315.34 281.367 1315.94 281.9C1316.54 282.433 1316.84 283.033 1316.84 283.7C1316.84 284.967 1315.84 287.467 1313.84 291.2C1311.91 294.867 1309.38 299.433 1306.24 304.9L1303.84 309.1C1307.24 309.7 1310.31 310 1313.04 310C1316.51 310 1320.81 309.5 1325.94 308.5C1328.34 302.033 1331.08 295.8 1334.14 289.8C1337.28 283.8 1340.34 278.933 1343.34 275.2C1346.34 271.467 1348.84 269.6 1350.84 269.6C1352.11 269.6 1353.11 270.333 1353.84 271.8C1354.64 273.2 1355.04 274.833 1355.04 276.7C1355.04 279.7 1354.04 283.467 1352.04 288C1350.04 292.533 1347.31 296.933 1343.84 301.2C1340.44 305.4 1336.78 308.633 1332.84 310.9C1331.64 313.767 1330.58 317.633 1329.64 322.5C1328.71 327.3 1328.24 331.033 1328.24 333.7C1334.18 318.167 1340.94 310.4 1348.54 310.4C1351.41 310.4 1353.58 311.367 1355.04 313.3C1356.58 315.167 1357.34 317.433 1357.34 320.1C1357.34 322.5 1356.54 325.633 1354.94 329.5C1354.81 329.833 1354.48 330.767 1353.94 332.3C1353.41 333.833 1353.14 335.167 1353.14 336.3C1353.14 337.433 1353.38 338.267 1353.84 338.8C1354.38 339.267 1355.04 339.5 1355.84 339.5C1357.31 339.5 1359.01 338.767 1360.94 337.3C1362.94 335.767 1364.88 333.767 1366.74 331.3C1368.68 328.833 1370.28 326.2 1371.54 323.4L1373.44 325.2C1371.11 330.533 1368.14 334.933 1364.54 338.4C1361.01 341.8 1357.28 343.5 1353.34 343.5C1350.88 343.5 1348.94 342.833 1347.54 341.5C1346.14 340.233 1345.44 338.567 1345.44 336.5C1345.44 335.633 1345.58 334.567 1345.84 333.3C1346.18 332.033 1346.51 330.8 1346.84 329.6C1346.91 329.267 1347.18 328.267 1347.64 326.6C1348.11 324.933 1348.34 323.433 1348.34 322.1C1348.34 319.233 1347.18 317.8 1344.84 317.8C1342.51 317.8 1340.48 319.133 1338.74 321.8C1337.08 324.467 1335.21 328.267 1333.14 333.2C1331.54 337.2 1330.18 340.133 1329.04 342C1327.91 343.933 1326.64 344.9 1325.24 344.9C1323.51 344.9 1322.24 343.433 1321.44 340.5C1320.64 337.567 1320.24 334.9 1320.24 332.5C1317.51 336.567 1314.34 339.767 1310.74 342.1C1307.14 344.433 1303.41 345.6 1299.54 345.6ZM1334.84 304.6C1337.58 302.2 1340.11 299.333 1342.44 296C1344.84 292.6 1346.71 289.333 1348.04 286.2C1349.44 283.067 1350.14 280.7 1350.14 279.1C1349.34 279.3 1348.01 280.6 1346.14 283C1344.28 285.4 1342.31 288.5 1340.24 292.3C1338.18 296.1 1336.38 300.2 1334.84 304.6ZM1302.44 340.6C1305.78 340.6 1309.11 339.167 1312.44 336.3C1315.84 333.367 1318.78 329.367 1321.24 324.3C1322.11 320.033 1323.14 316.167 1324.34 312.7C1320.34 313.5 1316.58 313.9 1313.04 313.9C1309.64 313.9 1306.01 313.533 1302.14 312.8C1298.81 320.267 1297.14 326.967 1297.14 332.9C1297.14 335.7 1297.51 337.7 1298.24 338.9C1299.04 340.033 1300.44 340.6 1302.44 340.6ZM1388.94 298.9C1387.54 298.9 1386.34 298.567 1385.34 297.9C1384.41 297.233 1383.94 296.267 1383.94 295C1383.94 293.467 1384.78 292.133 1386.44 291C1388.18 289.8 1390.01 289.2 1391.94 289.2C1394.81 289.2 1396.24 290.433 1396.24 292.9C1396.24 294.3 1395.48 295.667 1393.94 297C1392.41 298.267 1390.74 298.9 1388.94 298.9ZM1377.14 344C1374.34 344 1372.18 343.167 1370.64 341.5C1369.11 339.833 1368.34 337.7 1368.34 335.1C1368.34 332.433 1369.08 328.833 1370.54 324.3C1372.08 319.7 1373.98 315.667 1376.24 312.2C1378.58 308.733 1380.91 307 1383.24 307C1384.11 307 1384.81 307.267 1385.34 307.8C1385.94 308.267 1386.24 308.967 1386.24 309.9C1386.24 310.5 1385.98 311.333 1385.44 312.4C1384.91 313.4 1384.04 314.867 1382.84 316.8C1380.71 320.333 1379.01 323.467 1377.74 326.2C1376.54 328.867 1375.94 331.4 1375.94 333.8C1375.94 335.867 1376.31 337.267 1377.04 338C1377.78 338.733 1378.91 339.1 1380.44 339.1C1385.71 339.1 1390.94 334 1396.14 323.8L1397.64 325.4C1395.31 331.267 1392.34 335.833 1388.74 339.1C1385.14 342.367 1381.28 344 1377.14 344ZM1427.26 343C1424.73 343 1422.76 342.367 1421.36 341.1C1419.96 339.833 1419.26 338.167 1419.26 336.1C1419.26 335.233 1419.39 334.233 1419.66 333.1C1419.99 331.967 1420.33 330.833 1420.66 329.7C1421.59 326.633 1422.06 324.367 1422.06 322.9C1422.06 321.567 1421.73 320.6 1421.06 320C1420.39 319.333 1419.56 319 1418.56 319C1415.03 319 1411.46 321.233 1407.86 325.7C1404.26 330.1 1400.39 335.7 1396.26 342.5C1393.39 342.5 1391.23 341.533 1389.76 339.6L1390.66 337.1C1394.59 327.567 1396.56 320.5 1396.56 315.9C1397.09 315.3 1397.86 314.767 1398.86 314.3C1399.86 313.767 1400.83 313.5 1401.76 313.5C1402.89 313.5 1403.76 313.767 1404.36 314.3C1404.96 314.833 1405.26 315.567 1405.26 316.5C1405.26 318.3 1404.69 321.267 1403.56 325.4C1406.56 321.4 1409.66 318.133 1412.86 315.6C1416.13 313.067 1419.33 311.8 1422.46 311.8C1425.13 311.8 1427.19 312.733 1428.66 314.6C1430.13 316.4 1430.86 318.567 1430.86 321.1C1430.86 322.567 1430.66 323.967 1430.26 325.3C1429.93 326.633 1429.39 328.133 1428.66 329.8C1427.53 332.6 1426.96 334.7 1426.96 336.1C1426.96 337.1 1427.19 337.833 1427.66 338.3C1428.13 338.767 1428.69 339 1429.36 339C1431.56 339 1433.93 337.5 1436.46 334.5C1439.06 331.433 1441.39 327.833 1443.46 323.7L1445.16 325.1C1442.76 330.633 1440.09 335 1437.16 338.2C1434.29 341.4 1430.99 343 1427.26 343ZM1445.82 369C1443.96 369 1442.36 368.433 1441.02 367.3C1439.69 366.233 1439.02 364.667 1439.02 362.6C1439.02 360 1439.99 357.633 1441.92 355.5C1443.92 353.367 1446.22 351.533 1448.82 350C1451.42 348.533 1454.86 346.8 1459.12 344.8C1460.79 340.6 1462.12 336.433 1463.12 332.3C1457.72 339.1 1452.66 342.5 1447.92 342.5C1445.26 342.5 1443.12 341.567 1441.52 339.7C1439.99 337.833 1439.22 335.367 1439.22 332.3C1439.22 327.833 1440.69 323.6 1443.62 319.6C1446.56 315.6 1450.19 312.4 1454.52 310C1458.86 307.533 1462.99 306.3 1466.92 306.3C1468.99 306.3 1470.56 306.667 1471.62 307.4C1472.76 308.133 1473.32 309.033 1473.32 310.1C1473.32 310.767 1473.12 311.367 1472.72 311.9C1472.32 312.433 1471.99 312.733 1471.72 312.8C1471.06 312.133 1470.39 311.667 1469.72 311.4C1469.06 311.133 1468.22 311 1467.22 311C1463.96 311 1460.79 312.233 1457.72 314.7C1454.66 317.1 1452.16 320.033 1450.22 323.5C1448.36 326.9 1447.42 329.967 1447.42 332.7C1447.42 334.033 1447.69 335.067 1448.22 335.8C1448.82 336.467 1449.59 336.8 1450.52 336.8C1452.32 336.8 1454.52 335.633 1457.12 333.3C1459.79 330.967 1462.42 327.967 1465.02 324.3C1465.76 320.567 1466.62 317.9 1467.62 316.3C1468.62 314.633 1470.06 313.8 1471.92 313.8C1472.79 313.8 1473.76 313.933 1474.82 314.2C1474.82 315.933 1474.09 319.4 1472.62 324.6C1471.16 329.8 1469.39 335.2 1467.32 340.8C1470.66 339.4 1473.86 337.233 1476.92 334.3C1480.06 331.3 1482.29 327.867 1483.62 324L1485.42 325.8C1483.96 330 1481.32 333.8 1477.52 337.2C1473.79 340.6 1469.96 343.2 1466.02 345C1462.96 352.4 1459.76 358.233 1456.42 362.5C1453.16 366.833 1449.62 369 1445.82 369ZM1445.42 364.4C1446.76 364.4 1448.49 363.167 1450.62 360.7C1452.76 358.233 1454.96 354.5 1457.22 349.5C1452.89 351.633 1449.52 353.633 1447.12 355.5C1444.72 357.433 1443.52 359.467 1443.52 361.6C1443.52 362.467 1443.69 363.133 1444.02 363.6C1444.42 364.133 1444.89 364.4 1445.42 364.4ZM1511.73 349.7C1508.67 348.1 1507.13 346.033 1507.13 343.5C1507.13 340.967 1508.47 337.067 1511.13 331.8C1513.8 326.467 1517.37 320.367 1521.83 313.5C1517.83 313.233 1512.93 313.1 1507.13 313.1C1508.73 308.767 1512.6 306.6 1518.73 306.6C1520.07 306.6 1522.53 306.8 1526.13 307.2C1533.6 296.4 1540.57 287.3 1547.03 279.9C1553.5 272.5 1557.8 268.8 1559.93 268.8C1561.67 268.8 1563.93 270.1 1566.73 272.7C1565.4 273.7 1563.43 277.867 1560.83 285.2C1558.3 292.467 1556.03 300.467 1554.03 309.2C1552.1 317.867 1551.13 324.867 1551.13 330.2C1551.13 332.867 1551.4 334.867 1551.93 336.2C1552.53 337.467 1553.43 338.1 1554.63 338.1C1556.3 338.1 1558.27 336.9 1560.53 334.5C1562.8 332.033 1565.27 328.267 1567.93 323.2L1569.73 325.1C1567.6 330.767 1564.87 335.333 1561.53 338.8C1558.2 342.2 1554.73 343.9 1551.13 343.9C1548.07 343.9 1545.83 342.567 1544.43 339.9C1543.03 337.233 1542.33 333.4 1542.33 328.4C1542.33 325.133 1542.77 321 1543.63 316C1540.23 315.467 1535.47 314.833 1529.33 314.1C1523.13 325.1 1517.27 336.967 1511.73 349.7ZM1544.63 311.1C1545.83 305.5 1547.4 299.7 1549.33 293.7C1551.27 287.7 1553.23 282.333 1555.23 277.6C1552.3 279.933 1548.87 283.8 1544.93 289.2C1541 294.6 1536.87 301 1532.53 308.4L1540.03 310C1542.03 310.533 1543.57 310.9 1544.63 311.1ZM1575.64 348.3C1571.91 348.3 1569.04 347.133 1567.04 344.8C1565.04 342.467 1564.04 339.2 1564.04 335C1564.04 328.733 1566.04 320.367 1570.04 309.9C1574.04 299.367 1578.61 290.033 1583.74 281.9C1588.87 273.7 1592.91 269.6 1595.84 269.6C1597.11 269.6 1598.07 270.3 1598.74 271.7C1599.47 273.1 1599.87 274.7 1599.94 276.5C1599.94 279.7 1598.84 283.9 1596.64 289.1C1594.44 294.233 1591.54 299.167 1587.94 303.9C1584.41 308.633 1580.67 312.133 1576.74 314.4C1575.81 316.133 1574.81 319 1573.74 323C1572.74 326.933 1572.24 330.733 1572.24 334.4C1572.24 337.333 1572.64 339.667 1573.44 341.4C1574.31 343.2 1575.64 344.1 1577.44 344.1C1579.17 344.1 1581.04 343.3 1583.04 341.7C1585.04 340.167 1586.67 338.233 1587.94 335.9C1585.54 334.567 1583.67 332.733 1582.34 330.4C1581.07 328 1580.44 325.433 1580.44 322.7C1580.44 319.5 1581.31 316.9 1583.04 314.9C1584.77 312.833 1586.94 311.8 1589.54 311.8C1591.81 311.8 1593.61 312.667 1594.94 314.4C1596.27 316.067 1596.94 318.533 1596.94 321.8C1596.94 325.867 1595.94 330.067 1593.94 334.4L1595.74 334.5C1598.81 334.5 1601.34 333.433 1603.34 331.3C1605.34 329.167 1607.11 326.533 1608.64 323.4L1610.14 325.5C1608.34 329.633 1606.21 332.7 1603.74 334.7C1601.34 336.633 1598.24 337.6 1594.44 337.6C1593.51 337.6 1592.81 337.567 1592.34 337.5C1590.27 340.767 1587.84 343.367 1585.04 345.3C1582.24 347.3 1579.11 348.3 1575.64 348.3ZM1578.64 308.1C1581.37 305.633 1584.01 302.433 1586.54 298.5C1589.07 294.5 1591.14 290.667 1592.74 287C1594.34 283.267 1595.17 280.6 1595.24 279C1594.37 279.333 1592.87 281 1590.74 284C1588.61 287 1586.41 290.7 1584.14 295.1C1581.87 299.433 1580.04 303.767 1578.64 308.1ZM1589.64 332.6C1590.84 329.867 1591.44 327.033 1591.44 324.1C1591.44 321.833 1591.17 320.1 1590.64 318.9C1590.11 317.7 1589.41 317.1 1588.54 317.1C1587.67 317.1 1586.91 317.7 1586.24 318.9C1585.64 320.1 1585.34 321.533 1585.34 323.2C1585.34 324.867 1585.67 326.6 1586.34 328.4C1587.07 330.133 1588.17 331.533 1589.64 332.6ZM1612.66 344.2C1609.93 344.2 1607.93 343.3 1606.66 341.5C1605.46 339.7 1604.86 337.467 1604.86 334.8C1604.86 332 1605.43 329.1 1606.56 326.1C1607.76 323.1 1609.29 320.6 1611.16 318.6C1613.03 316.6 1614.93 315.6 1616.86 315.6C1617.66 315.6 1618.69 315.867 1619.96 316.4C1620.36 313.333 1621.43 310.8 1623.16 308.8C1624.96 306.8 1627.46 305.8 1630.66 305.8C1633.33 305.8 1635.29 306.567 1636.56 308.1C1637.83 309.567 1638.46 311.5 1638.46 313.9C1638.46 316.233 1637.83 318.9 1636.56 321.9C1635.36 324.9 1633.79 327.9 1631.86 330.9C1632.66 331.3 1633.59 331.5 1634.66 331.5C1636.53 331.5 1638.53 330.9 1640.66 329.7C1642.79 328.433 1644.43 326.533 1645.56 324L1647.36 325.3C1645.96 328.5 1644.06 330.933 1641.66 332.6C1639.33 334.267 1636.89 335.1 1634.36 335.1C1632.83 335.1 1631.16 334.8 1629.36 334.2C1626.89 337.133 1624.19 339.533 1621.26 341.4C1618.33 343.267 1615.46 344.2 1612.66 344.2ZM1628.46 328.8C1630.13 326.333 1631.49 323.767 1632.56 321.1C1633.69 318.433 1634.26 316.033 1634.26 313.9C1634.26 310.967 1633.33 309.5 1631.46 309.5C1630.59 309.5 1629.69 309.933 1628.76 310.8C1627.83 311.667 1627.06 312.833 1626.46 314.3C1625.86 315.7 1625.56 317.267 1625.56 319C1625.56 320.533 1625.83 322.3 1626.36 324.3C1626.89 326.233 1627.59 327.733 1628.46 328.8ZM1616.26 339.1C1617.46 339.1 1618.93 338.433 1620.66 337.1C1622.39 335.767 1624.13 334.067 1625.86 332C1622.06 328.667 1620.06 323.767 1619.86 317.3C1619.06 317.7 1618.09 318.933 1616.96 321C1615.83 323.067 1614.86 325.367 1614.06 327.9C1613.26 330.433 1612.86 332.633 1612.86 334.5C1612.86 337.567 1613.99 339.1 1616.26 339.1ZM1650.87 344C1648.67 344 1646.83 342.967 1645.37 340.9C1643.9 338.833 1643.17 336.4 1643.17 333.6C1643.17 331.2 1643.7 328.2 1644.77 324.6C1645.83 321 1647.07 317.867 1648.47 315.2C1649.93 312.533 1651.2 311.2 1652.27 311.2C1652.73 311.2 1653.43 311.467 1654.37 312C1655.37 312.467 1656.23 313.067 1656.97 313.8C1655.57 315.867 1654.1 318.833 1652.57 322.7C1651.1 326.567 1650.37 329.9 1650.37 332.7C1650.37 333.967 1650.53 335.3 1650.87 336.7C1651.27 338.033 1652.1 338.7 1653.37 338.7C1655.83 338.7 1658.77 335.967 1662.17 330.5C1665.63 324.967 1668.6 319.367 1671.07 313.7C1675.07 314.367 1677.07 315.5 1677.07 317.1C1677.07 317.233 1676.67 318.2 1675.87 320C1674.47 323.267 1673.27 326.3 1672.27 329.1C1671.27 331.9 1670.77 334.333 1670.77 336.4C1670.77 338.733 1671.67 339.9 1673.47 339.9C1674.87 339.9 1676.53 339.267 1678.47 338C1680.47 336.667 1682.5 334.8 1684.57 332.4C1686.63 329.933 1688.43 327.1 1689.97 323.9L1691.47 325.1C1690 328.7 1688.1 331.933 1685.77 334.8C1683.43 337.667 1680.9 339.9 1678.17 341.5C1675.5 343.167 1672.93 344 1670.47 344C1667.53 344 1665.63 343 1664.77 341C1663.97 338.933 1663.57 336.2 1663.57 332.8C1661.3 336.267 1659.17 339 1657.17 341C1655.17 343 1653.07 344 1650.87 344ZM1696.51 345.6C1693.44 345.6 1691.04 344.7 1689.31 342.9C1687.57 341.167 1686.71 338.567 1686.71 335.1C1686.71 332.5 1687.21 329.2 1688.21 325.2C1689.21 321.133 1690.54 316.833 1692.21 312.3C1690.47 311.967 1689.31 311.667 1688.71 311.4V308.3C1690.31 308.5 1691.91 308.667 1693.51 308.8C1696.51 301.267 1699.71 294.8 1703.11 289.4C1706.57 284 1709.37 281.3 1711.51 281.3C1712.24 281.3 1712.87 281.567 1713.41 282.1C1714.01 282.633 1714.31 283.333 1714.31 284.2C1714.31 285.267 1713.84 286.7 1712.91 288.5C1711.97 290.3 1710.44 293.033 1708.31 296.7C1705.37 301.633 1703.07 305.767 1701.41 309.1C1709.07 309.1 1715.17 308.867 1719.71 308.4V311.7C1711.84 312.5 1705.14 312.9 1699.61 312.9C1696.14 321.1 1694.41 327.8 1694.41 333C1694.41 335.733 1694.84 337.667 1695.71 338.8C1696.57 339.933 1697.94 340.5 1699.81 340.5C1703.14 340.5 1706.54 339 1710.01 336C1713.54 332.933 1716.61 328.8 1719.21 323.6L1720.61 324.6C1717.87 330.8 1714.34 335.867 1710.01 339.8C1705.67 343.667 1701.17 345.6 1696.51 345.6ZM1741.69 349.7C1742.49 347.3 1746.36 338.8 1753.29 324.2C1763.49 302.067 1770.32 287.2 1773.79 279.6C1774.39 278.267 1774.69 277.167 1774.69 276.3C1774.69 274.833 1773.72 274.1 1771.79 274.1C1769.19 274.1 1766.99 274.933 1765.19 276.6C1763.39 278.2 1762.02 280.233 1761.09 282.7C1760.22 285.167 1759.79 287.667 1759.79 290.2C1759.79 291.6 1759.92 293.2 1760.19 295C1757.99 295 1756.26 294.067 1754.99 292.2C1753.72 290.267 1753.09 288.167 1753.09 285.9C1753.09 283.167 1754.12 280.5 1756.19 277.9C1758.26 275.233 1760.89 273.1 1764.09 271.5C1767.36 269.833 1770.56 269 1773.69 269C1776.29 269 1778.42 269.733 1780.09 271.2C1781.82 272.6 1783.12 275.1 1783.99 278.7C1784.92 282.3 1785.39 287.333 1785.39 293.8C1785.39 298.467 1785.02 305.7 1784.29 315.5C1783.76 322.7 1783.49 327.3 1783.49 329.3C1785.49 323.3 1788.32 316.6 1791.99 309.2C1795.66 301.8 1799.29 294.967 1802.89 288.7C1806.56 282.367 1809.42 277.667 1811.49 274.6C1812.56 272.933 1813.46 271.8 1814.19 271.2C1814.92 270.533 1815.86 270.2 1816.99 270.2C1817.92 270.2 1819.39 270.567 1821.39 271.3C1820.06 274.167 1818.32 280 1816.19 288.8C1814.06 297.6 1812.19 306.867 1810.59 316.6C1809.06 326.267 1808.29 334.067 1808.29 340C1808.29 342.067 1808.39 343.6 1808.59 344.6C1808.79 345.6 1809.06 346.567 1809.39 347.5C1809.79 348.5 1810.09 349.233 1810.29 349.7C1807.42 349.7 1805.26 349.267 1803.79 348.4C1802.32 347.6 1801.32 346.267 1800.79 344.4C1800.26 342.6 1799.99 340.033 1799.99 336.7C1799.99 330.033 1800.69 322.967 1802.09 315.5C1803.56 308.033 1805.69 298.9 1808.49 288.1C1804.29 294.1 1799.69 302.6 1794.69 313.6C1789.69 324.6 1785.99 333.633 1783.59 340.7L1782.89 340.9C1782.42 341.1 1781.96 341.2 1781.49 341.2C1779.29 341.2 1777.82 339.933 1777.09 337.4C1776.42 334.867 1776.09 330.833 1776.09 325.3C1776.09 321.9 1776.22 316.2 1776.49 308.2C1776.76 299.8 1776.89 293.667 1776.89 289.8L1776.79 283.9L1766.49 308.1C1761.56 319.833 1757.86 328.367 1755.39 333.7C1752.99 338.967 1750.69 342.933 1748.49 345.6C1746.36 348.333 1744.09 349.7 1741.69 349.7ZM1832.01 345.4C1827.81 345.4 1824.55 344.267 1822.21 342C1819.88 339.733 1818.71 336.833 1818.71 333.3C1818.71 329.433 1820.01 325.267 1822.61 320.8C1825.21 316.267 1828.55 312.5 1832.61 309.5C1836.68 306.433 1840.68 304.9 1844.61 304.9C1846.68 304.9 1848.41 305.433 1849.81 306.5C1851.21 307.5 1851.91 309.2 1851.91 311.6C1851.91 314.8 1850.68 317.833 1848.21 320.7C1845.75 323.5 1842.55 325.8 1838.61 327.6C1834.75 329.4 1830.78 330.533 1826.71 331C1826.58 331.667 1826.51 332.433 1826.51 333.3C1826.51 335.033 1826.98 336.767 1827.91 338.5C1828.91 340.233 1831.01 341.1 1834.21 341.1C1838.28 341.1 1842.41 339.467 1846.61 336.2C1850.88 332.867 1854.31 328.733 1856.91 323.8L1858.91 325.4C1856.25 331.4 1852.41 336.233 1847.41 339.9C1842.48 343.567 1837.35 345.4 1832.01 345.4ZM1827.81 327.3C1830.21 327.033 1832.88 326.067 1835.81 324.4C1838.81 322.733 1841.35 320.7 1843.41 318.3C1845.48 315.833 1846.51 313.433 1846.51 311.1C1846.51 310.367 1846.38 309.867 1846.11 309.6C1845.85 309.333 1845.41 309.2 1844.81 309.2C1842.88 309.2 1840.75 310.133 1838.41 312C1836.15 313.8 1834.05 316.1 1832.11 318.9C1830.18 321.7 1828.75 324.5 1827.81 327.3ZM1861.7 342C1860.23 342 1859.13 341.633 1858.4 340.9C1857.66 340.1 1857.3 339.2 1857.3 338.2C1857.3 337.067 1858 335.9 1859.4 334.7C1860.86 333.5 1862.26 332.9 1863.6 332.9C1864.46 332.9 1865.23 333.167 1865.9 333.7C1866.56 334.167 1866.9 334.933 1866.9 336C1866.9 336.6 1866.66 337.4 1866.2 338.4C1865.8 339.333 1865.2 340.167 1864.4 340.9C1863.66 341.633 1862.76 342 1861.7 342Z" fill="#FFFAFA"/>
</svg>
